<?xml version="1.0" encoding="UTF-8" standalone="no"?>
<!-- Created with Inkscape (http://www.inkscape.org/) -->

<svg
   width="256mm"
   height="256mm"
   viewBox="0 0 256 256"
   version="1.1"
   id="svg393"
   inkscape:version="1.2.2 (b0a8486541, 2022-12-01)"
   sodipodi:docname="arts.svg"
   xmlns:inkscape="http://www.inkscape.org/namespaces/inkscape"
   xmlns:sodipodi="http://sodipodi.sourceforge.net/DTD/sodipodi-0.dtd"
   xmlns="http://www.w3.org/2000/svg"
   xmlns:svg="http://www.w3.org/2000/svg">
  <sodipodi:namedview
     id="namedview395"
     pagecolor="#e3e3e3"
     bordercolor="#eeeeee"
     borderopacity="1"
     inkscape:showpageshadow="false"
     inkscape:pageopacity="0"
     inkscape:pagecheckerboard="false"
     inkscape:deskcolor="#c6c6c6"
     inkscape:document-units="mm"
     showgrid="false"
     inkscape:zoom="3.3638608"
     inkscape:cx="46.078006"
     inkscape:cy="64.806486"
     inkscape:window-width="1280"
     inkscape:window-height="1024"
     inkscape:window-x="0"
     inkscape:window-y="0"
     inkscape:window-maximized="0"
     inkscape:current-layer="layer1" />
  <defs
     id="defs390">
    <inkscape:path-effect
       effect="offset"
       id="path-effect1787"
       is_visible="true"
       lpeversion="1.2"
       linejoin_type="miter"
       unit="mm"
       offset="-0.34303322"
       miter_limit="4"
       attempt_force_join="false"
       update_on_knot_move="true" />
  </defs>
  <g
     inkscape:label="Layer 1"
     inkscape:groupmode="layer"
     id="layer1">
    <path
       id="path700"
       style="fill:#ffda83;fill-opacity:1;fill-rule:evenodd;stroke-width:0.345001"
       d="m 11.326743,4.5538248 a 7.3129716,7.3129716 0 0 0 -7.312732,7.3127322 7.3129716,7.3129716 0 0 0 7.312732,7.313249 7.3129716,7.3129716 0 0 0 7.313249,-7.313249 7.3129716,7.3129716 0 0 0 -0.09509,-1.173055 5.1710515,5.1710515 0 0 1 -5.076176,4.202327 A 5.1710515,5.1710515 0 0 1 8.2979872,9.7250854 5.1710515,5.1710515 0 0 1 12.500315,4.6489095 7.3129716,7.3129716 0 0 0 11.326743,4.5538248 Z" />
    <path
       id="path1785"
       style="fill:#ffd36a;fill-opacity:1;fill-rule:evenodd;stroke-width:0.345001"
       d="M 10.574219,5.0507812 C 8.991254,6.0319004 7.9563355,7.7703678 7.9550781,9.7246094 7.9552596,12.77136 10.421597,15.240051 13.46875,15.240234 c 1.955648,-0.0013 3.697085,-1.037528 4.677734,-2.623046 -0.391076,3.477862 -3.238291,6.218885 -6.820312,6.21875 C 7.4784534,18.835811 4.3572759,15.714876 4.3574219,11.867188 4.3575391,8.2863539 7.0977915,5.4429176 10.574219,5.0507812 Z"
       inkscape:path-effect="#path-effect1787"
       inkscape:original-d="m 11.326743,4.5538248 a 7.3129716,7.3129716 0 0 0 -7.312732,7.3127322 7.3129716,7.3129716 0 0 0 7.312732,7.313249 7.3129716,7.3129716 0 0 0 7.313249,-7.313249 7.3129716,7.3129716 0 0 0 -0.09509,-1.173055 5.1710515,5.1710515 0 0 1 -5.076176,4.202327 A 5.1710515,5.1710515 0 0 1 8.2979872,9.7250854 5.1710515,5.1710515 0 0 1 12.500315,4.6489095 7.3129716,7.3129716 0 0 0 11.326743,4.5538248 Z" />
    <text
       xml:space="preserve"
       style="font-size:26.4583px;font-family:'Fakt Pro';-inkscape-font-specification:'Fakt Pro';fill:#ffd36a;fill-opacity:1;fill-rule:evenodd;stroke-width:0.345001"
       x="4.4296765"
       y="23.508417"
       id="text1939"><tspan
         sodipodi:role="line"
         id="tspan1937"
         style="stroke-width:0.345"
         x="4.4296765"
         y="23.508417" /></text>
  </g>
</svg>
