<?xml version="1.0" encoding="UTF-8" standalone="no"?>
<svg
   width="681"
   height="193"
   viewBox="0 0 681 193"
   fill="none"
   version="1.1"
   id="svg208"
   sodipodi:docname="hand.svg"
   xml:space="preserve"
   inkscape:version="1.2.2 (b0a8486541, 2022-12-01)"
   inkscape:export-filename="../hand.png"
   inkscape:export-xdpi="96"
   inkscape:export-ydpi="96"
   xmlns:inkscape="http://www.inkscape.org/namespaces/inkscape"
   xmlns:sodipodi="http://sodipodi.sourceforge.net/DTD/sodipodi-0.dtd"
   xmlns:xlink="http://www.w3.org/1999/xlink"
   xmlns="http://www.w3.org/2000/svg"
   xmlns:svg="http://www.w3.org/2000/svg"><defs
     id="defs212"><linearGradient
       inkscape:collect="always"
       id="linearGradient3447"><stop
         style="stop-color:#ffcaca;stop-opacity:1;"
         offset="0"
         id="stop3443" /><stop
         style="stop-color:#ffcccc;stop-opacity:0;"
         offset="1"
         id="stop3445" /></linearGradient><linearGradient
       inkscape:collect="always"
       id="linearGradient3345"><stop
         style="stop-color:#ffd97f;stop-opacity:1;"
         offset="0"
         id="stop3341" /><stop
         style="stop-color:#ffe0a7;stop-opacity:1;"
         offset="1"
         id="stop3343" /></linearGradient><inkscape:path-effect
       effect="copy_rotate"
       starting_point="119.97334,85.234879"
       origin="118.78906,85.234879"
       id="path-effect6747"
       is_visible="true"
       lpeversion="1.2"
       lpesatellites="#g4583 | #g4589 | #g4595 | #g4601 | #g4607 | #g4613 | #g4619 | #g4625 | #g4631"
       method="normal"
       num_copies="10"
       starting_angle="0"
       rotation_angle="36"
       gap="-0.01"
       copies_to_360="true"
       mirror_copies="false"
       split_items="true"
       link_styles="false" /><inkscape:path-effect
       effect="copy_rotate"
       starting_point="217.93355,98.287499"
       origin="118.78906,85.234879"
       id="path-effect1725"
       is_visible="true"
       lpeversion="1.2"
       lpesatellites="#path4559 | #path4561 | #path4563 | #path4565"
       method="normal"
       num_copies="5"
       starting_angle="-7.5"
       rotation_angle="72"
       gap="-0.01"
       copies_to_360="true"
       mirror_copies="false"
       split_items="true"
       link_styles="false" /><inkscape:path-effect
       effect="copy_rotate"
       starting_point="127.13282,86.333356"
       origin="118.78906,85.234879"
       id="path-effect1676"
       is_visible="true"
       lpeversion="1.2"
       lpesatellites="#path4571 | #path4573 | #path4575 | #path4577"
       method="normal"
       num_copies="5"
       starting_angle="-7.5"
       rotation_angle="72"
       gap="-0.01"
       copies_to_360="true"
       mirror_copies="false"
       split_items="true"
       link_styles="false" /><radialGradient
       inkscape:collect="always"
       xlink:href="#linearGradient3345"
       id="radialGradient3349"
       cx="30.000002"
       cy="29.999994"
       fx="30.000002"
       fy="29.999994"
       r="3.5373683"
       gradientUnits="userSpaceOnUse"
       gradientTransform="matrix(11.471465,0,0,11.471465,-3.7418578,-283.26382)" /><linearGradient
       inkscape:collect="always"
       xlink:href="#linearGradient3447"
       id="linearGradient3611"
       x1="112.47242"
       y1="71.676491"
       x2="129.42044"
       y2="71.676491"
       gradientUnits="userSpaceOnUse" /><filter
       style="color-interpolation-filters:sRGB;"
       inkscape:label="Blur"
       id="filter1562"
       x="-0.88716283"
       y="-0.91377771"
       width="2.7743257"
       height="2.8275554"><feGaussianBlur
         stdDeviation="30 30.9"
         result="blur"
         id="feGaussianBlur1560" /></filter><linearGradient
       inkscape:collect="always"
       xlink:href="#linearGradient3447"
       id="linearGradient4647"
       gradientUnits="userSpaceOnUse"
       x1="112.47242"
       y1="71.676491"
       x2="129.42044"
       y2="71.676491" /><radialGradient
       inkscape:collect="always"
       xlink:href="#linearGradient3345"
       id="radialGradient4649"
       gradientUnits="userSpaceOnUse"
       gradientTransform="matrix(11.471465,0,0,11.471465,-3.7418578,-283.26382)"
       cx="30.000002"
       cy="29.999994"
       fx="30.000002"
       fy="29.999994"
       r="3.5373683" /><linearGradient
       inkscape:collect="always"
       xlink:href="#linearGradient3447"
       id="linearGradient4651"
       gradientUnits="userSpaceOnUse"
       x1="112.47242"
       y1="71.676491"
       x2="129.42044"
       y2="71.676491" /><linearGradient
       inkscape:collect="always"
       xlink:href="#linearGradient3447"
       id="linearGradient4653"
       gradientUnits="userSpaceOnUse"
       x1="112.47242"
       y1="71.676491"
       x2="129.42044"
       y2="71.676491" /></defs><sodipodi:namedview
     id="namedview210"
     pagecolor="#505050"
     bordercolor="#eeeeee"
     borderopacity="1"
     inkscape:showpageshadow="0"
     inkscape:pageopacity="0"
     inkscape:pagecheckerboard="0"
     inkscape:deskcolor="#505050"
     showgrid="false"
     inkscape:zoom="0.48898678"
     inkscape:cx="470.36036"
     inkscape:cy="114.52252"
     inkscape:window-width="1236"
     inkscape:window-height="456"
     inkscape:window-x="22"
     inkscape:window-y="564"
     inkscape:window-maximized="0"
     inkscape:current-layer="svg208" /><path
     id="path1530"
     style="fill:#ff9ba2;fill-opacity:1;stroke-width:0.265;stroke-dasharray:none"
     d="m 126.04691,60.153241 -4.27541,4.203198 -3.03883,-5.161966 c -3.36809,2.46374 -5.58276,6.197141 -6.13022,10.334092 -0.75041,5.724475 1.78785,11.383458 6.56206,14.629944 5.45196,-1.900043 9.3686,-6.70925 10.12547,-12.432988 0.54396,-4.138396 -0.6277,-8.319268 -3.24307,-11.57228 z"
     transform="matrix(12.178719,0,0,12.178718,-1114.295,-977.1715)"
     inkscape:original-d="m 122.71101,59.420478 -3.69021,4.725293 -3.6866,-4.721159 a 15.288897,15.288897 0 0 0 -4.72891,11.045838 15.288897,15.288897 0 0 0 8.41551,13.648262 15.288897,15.288897 0 0 0 8.41602,-13.648262 15.288897,15.288897 0 0 0 -4.72581,-11.049972 z"
     inkscape:path-effect="#path-effect1676"
     class="UnoptimicedTransforms" /><path
     id="path1719"
     style="fill:url(#linearGradient4647);fill-opacity:1;stroke-width:0.265348;stroke-dasharray:none"
     d="m 126.04691,60.153241 -4.27541,4.203198 -3.03883,-5.161966 c -3.36809,2.463741 -5.58276,6.197141 -6.13022,10.334092 -0.75041,5.724476 1.78785,11.383458 6.56206,14.629944 5.45196,-1.900043 9.36859,-6.709251 10.12547,-12.432988 0.54396,-4.138396 -0.6277,-8.319268 -3.24307,-11.57228 z"
     transform="matrix(12.034722,-0.93442883,0.93442883,12.034721,-1181.1492,-852.2691)"
     inkscape:original-d="m 122.71101,59.420478 -3.69021,4.725293 -3.6866,-4.721159 a 15.288897,15.288897 0 0 0 -4.72891,11.045838 15.288897,15.288897 0 0 0 8.41551,13.648262 15.288897,15.288897 0 0 0 8.41602,-13.648262 15.288897,15.288897 0 0 0 -4.72581,-11.049972 z"
     inkscape:path-effect="#path-effect1725"
     class="UnoptimicedTransforms" /><g
     id="g6745"
     transform="matrix(11.298672,0,0,11.298672,-1001.7566,-902.1609)"
     style="fill:#ffced1;fill-opacity:0.891528"
     inkscape:path-effect="#path-effect6747"
     class="UnoptimicedTransforms"><path
       style="fill:#ffced1;fill-opacity:0.891528;stroke-width:0.168874;stroke-dasharray:none"
       id="rect1783"
       width="0.53823256"
       height="9.4089537"
       x="-119.05818"
       y="73.170021"
       ry="0.60731512"
       rx="0.26911628"
       transform="scale(-1,1)"
       sodipodi:type="rect"
       d="m -118.78907,73.170021 c 0.14909,0 0.26912,0.270863 0.26912,0.607315 v 8.194324 c 0,0.336452 -0.12003,0.607315 -0.26912,0.607315 -0.14909,0 -0.26911,-0.270863 -0.26911,-0.607315 v -8.194324 c 0,-0.336452 0.12002,-0.607315 0.26911,-0.607315 z" /><circle
       style="fill:#ffced1;fill-opacity:0.891528;stroke-width:0.264999;stroke-dasharray:none"
       id="path6731"
       cx="118.78906"
       cy="72.846825"
       r="1.1842773"
       d="m 119.97334,72.846825 c 0,0.654058 -0.53022,1.184277 -1.18428,1.184277 -0.65406,0 -1.18427,-0.530219 -1.18427,-1.184277 0,-0.654059 0.53021,-1.184278 1.18427,-1.184278 0.65406,0 1.18428,0.530219 1.18428,1.184278 z" /></g><circle
     style="fill:url(#radialGradient4649);fill-opacity:1;stroke-width:4.45022;filter:url(#filter1562)"
     id="circle1290"
     cx="340.40213"
     cy="60.880051"
     r="40.578796" /><g
     id="g4557"
     style="display:none" /><g
     id="g4569"
     style="display:none"><path
       transform="matrix(-10.285538,-6.3178627,6.3178633,-10.285537,1011.3971,1689.6885)"
       style="fill:url(#linearGradient3611);fill-opacity:1;stroke-width:0.265348;stroke-dasharray:none"
       class="UnoptimicedTransforms"
       id="path4561"
       d="m 126.04691,60.153241 -4.27541,4.203198 -3.03883,-5.161966 c -3.36809,2.463741 -5.58276,6.197141 -6.13022,10.334092 -0.75041,5.724476 1.78785,11.383458 6.56206,14.629944 5.45196,-1.900043 9.36859,-6.709251 10.12547,-12.432988 0.54396,-4.138396 -0.6277,-8.319268 -3.24307,-11.57228 z" /><path
       transform="matrix(-9.1870511,7.8298003,-7.8298009,-9.1870503,2086.7833,-84.528532)"
       style="fill:url(#linearGradient3611);fill-opacity:1;stroke-width:0.265348;stroke-dasharray:none"
       class="UnoptimicedTransforms"
       id="path4563"
       d="m 126.04691,60.153241 -4.27541,4.203198 -3.03883,-5.161966 c -3.36809,2.463741 -5.58276,6.197141 -6.13022,10.334092 -0.75041,5.724476 1.78785,11.383458 6.56206,14.629944 5.45196,-1.900043 9.36859,-6.709251 10.12547,-12.432988 0.54396,-4.138396 -0.6277,-8.319268 -3.24307,-11.57228 z" /></g><path
     transform="matrix(3.7634311,-11.582649,11.58265,3.7634308,-1101.8966,1115.9965)"
     style="fill:#ff9ba2;fill-opacity:1;stroke-width:0.265;stroke-dasharray:none"
     class="UnoptimicedTransforms"
     id="path4571"
     d="m 126.04691,60.153241 -4.27541,4.203198 -3.03883,-5.161966 c -3.36809,2.46374 -5.58276,6.197141 -6.13022,10.334092 -0.75041,5.724475 1.78785,11.383458 6.56206,14.629944 5.45196,-1.900043 9.3686,-6.70925 10.12547,-12.432988 0.54396,-4.138396 -0.6277,-8.319268 -3.24307,-11.57228 z" /><path
     transform="matrix(-9.8527906,-7.1584708,7.1584714,-9.8527898,892.65588,1751.0294)"
     style="display:none;fill:#ff9ba2;fill-opacity:1;stroke-width:0.265;stroke-dasharray:none"
     class="UnoptimicedTransforms"
     id="path4573"
     d="m 126.04691,60.153241 -4.27541,4.203198 -3.03883,-5.161966 c -3.36809,2.46374 -5.58276,6.197141 -6.13022,10.334092 -0.75041,5.724475 1.78785,11.383458 6.56206,14.629944 5.45196,-1.900043 9.3686,-6.70925 10.12547,-12.432988 0.54396,-4.138396 -0.6277,-8.319268 -3.24307,-11.57228 z" /><path
     transform="matrix(-9.8527906,7.1584708,-7.1584714,-9.8527898,2112.9588,50.333383)"
     style="display:none;fill:#ff9ba2;fill-opacity:1;stroke-width:0.265;stroke-dasharray:none"
     class="UnoptimicedTransforms"
     id="path4575"
     d="m 126.04691,60.153241 -4.27541,4.203198 -3.03883,-5.161966 c -3.36809,2.46374 -5.58276,6.197141 -6.13022,10.334092 -0.75041,5.724475 1.78785,11.383458 6.56206,14.629944 5.45196,-1.900043 9.3686,-6.70925 10.12547,-12.432988 0.54396,-4.138396 -0.6277,-8.319268 -3.24307,-11.57228 z" /><path
     transform="matrix(2.830239,-11.734454,11.734455,2.8302387,-1008.2963,1215.1987)"
     style="fill:url(#linearGradient4651);fill-opacity:1;stroke-width:0.265348;stroke-dasharray:none"
     class="UnoptimicedTransforms"
     id="path4559"
     d="m 126.04691,60.153241 -4.27541,4.203198 -3.03883,-5.161966 c -3.36809,2.463741 -5.58276,6.197141 -6.13022,10.334092 -0.75041,5.724476 1.78785,11.383458 6.56206,14.629944 5.45196,-1.900043 9.36859,-6.709251 10.12547,-12.432988 0.54396,-4.138396 -0.6277,-8.319268 -3.24307,-11.57228 z" /><path
     transform="matrix(3.7634311,11.582649,-11.58265,3.7634308,872.59491,-1635.7875)"
     style="fill:#ff9ba2;fill-opacity:1;stroke-width:0.265;stroke-dasharray:none"
     class="UnoptimicedTransforms"
     id="path4577"
     d="m 126.04691,60.153241 -4.27541,4.203198 -3.03883,-5.161966 c -3.36809,2.46374 -5.58276,6.197141 -6.13022,10.334092 -0.75041,5.724475 1.78785,11.383458 6.56206,14.629944 5.45196,-1.900043 9.3686,-6.70925 10.12547,-12.432988 0.54396,-4.138396 -0.6277,-8.319268 -3.24307,-11.57228 z" /><path
     transform="matrix(4.6076282,11.156945,-11.156946,4.6076279,731.71519,-1655.5447)"
     style="fill:url(#linearGradient4653);fill-opacity:1;stroke-width:0.265348;stroke-dasharray:none"
     class="UnoptimicedTransforms"
     id="path4565"
     d="m 126.04691,60.153241 -4.27541,4.203198 -3.03883,-5.161966 c -3.36809,2.463741 -5.58276,6.197141 -6.13022,10.334092 -0.75041,5.724476 1.78785,11.383458 6.56206,14.629944 5.45196,-1.900043 9.36859,-6.709251 10.12547,-12.432988 0.54396,-4.138396 -0.6277,-8.319268 -3.24307,-11.57228 z" /><circle
     style="fill:url(#radialGradient3349);fill-opacity:1;stroke-width:4.45022"
     id="path704"
     cx="340.40213"
     cy="60.880051"
     r="40.578796" /><g
     transform="matrix(9.1408177,-6.6411928,6.6411928,9.1408177,-1311.4884,70.6646)"
     class="UnoptimicedTransforms"
     style="fill:#ffced1;fill-opacity:0.891528"
     id="g4583"><path
       transform="scale(-1,1)"
       style="fill:#ffced1;fill-opacity:0.891528;stroke-width:0.168874;stroke-dasharray:none"
       id="path4579"
       d="m -118.78907,73.170021 c 0.14909,0 0.26912,0.270863 0.26912,0.607315 v 8.194324 c 0,0.336452 -0.12003,0.607315 -0.26912,0.607315 -0.14909,0 -0.26911,-0.270863 -0.26911,-0.607315 v -8.194324 c 0,-0.336452 0.12002,-0.607315 0.26911,-0.607315 z" /><path
       style="fill:#ffced1;fill-opacity:0.891528;stroke-width:0.264999;stroke-dasharray:none"
       id="path4581"
       d="m 119.97334,72.846825 c 0,0.654058 -0.53022,1.184277 -1.18428,1.184277 -0.65406,0 -1.18427,-0.530219 -1.18427,-1.184277 0,-0.654059 0.53021,-1.184278 1.18427,-1.184278 0.65406,0 1.18428,0.530219 1.18428,1.184278 z" /></g><g
     transform="matrix(3.4914817,-10.745676,10.745676,3.4914817,-990.25416,1039.7527)"
     class="UnoptimicedTransforms"
     style="fill:#ffced1;fill-opacity:0.891528"
     id="g4589"><path
       transform="scale(-1,1)"
       style="fill:#ffced1;fill-opacity:0.891528;stroke-width:0.168874;stroke-dasharray:none"
       id="path4585"
       d="m -118.78907,73.170021 c 0.14909,0 0.26912,0.270863 0.26912,0.607315 v 8.194324 c 0,0.336452 -0.12003,0.607315 -0.26912,0.607315 -0.14909,0 -0.26911,-0.270863 -0.26911,-0.607315 v -8.194324 c 0,-0.336452 0.12002,-0.607315 0.26911,-0.607315 z" /><path
       style="fill:#ffced1;fill-opacity:0.891528;stroke-width:0.264999;stroke-dasharray:none"
       id="path4587"
       d="m 119.97334,72.846825 c 0,0.654058 -0.53022,1.184277 -1.18428,1.184277 -0.65406,0 -1.18427,-0.530219 -1.18427,-1.184277 0,-0.654059 0.53021,-1.184278 1.18427,-1.184278 0.65406,0 1.18428,0.530219 1.18428,1.184278 z" /></g><g
     transform="matrix(-3.4914817,-10.745676,10.745676,-3.4914817,-160.75451,1634.9448)"
     class="UnoptimicedTransforms"
     style="fill:#ffced1;fill-opacity:0.891528"
     id="g4595"><path
       transform="scale(-1,1)"
       style="fill:#ffced1;fill-opacity:0.891528;stroke-width:0.168874;stroke-dasharray:none"
       id="path4591"
       d="m -118.78907,73.170021 c 0.14909,0 0.26912,0.270863 0.26912,0.607315 v 8.194324 c 0,0.336452 -0.12003,0.607315 -0.26912,0.607315 -0.14909,0 -0.26911,-0.270863 -0.26911,-0.607315 v -8.194324 c 0,-0.336452 0.12002,-0.607315 0.26911,-0.607315 z" /><path
       style="fill:#ffced1;fill-opacity:0.891528;stroke-width:0.264999;stroke-dasharray:none"
       id="path4593"
       d="m 119.97334,72.846825 c 0,0.654058 -0.53022,1.184277 -1.18428,1.184277 -0.65406,0 -1.18427,-0.530219 -1.18427,-1.184277 0,-0.654059 0.53021,-1.184278 1.18427,-1.184278 0.65406,0 1.18428,0.530219 1.18428,1.184278 z" /></g><g
     transform="matrix(-9.1408177,-6.6411928,6.6411928,-9.1408177,860.1699,1628.8976)"
     class="UnoptimicedTransforms"
     style="display:none;fill:#ffced1;fill-opacity:0.891528"
     id="g4601"><path
       transform="scale(-1,1)"
       style="fill:#ffced1;fill-opacity:0.891528;stroke-width:0.168874;stroke-dasharray:none"
       id="path4597"
       d="m -118.78907,73.170021 c 0.14909,0 0.26912,0.270863 0.26912,0.607315 v 8.194324 c 0,0.336452 -0.12003,0.607315 -0.26912,0.607315 -0.14909,0 -0.26911,-0.270863 -0.26911,-0.607315 v -8.194324 c 0,-0.336452 0.12002,-0.607315 0.26911,-0.607315 z" /><path
       style="fill:#ffced1;fill-opacity:0.891528;stroke-width:0.264999;stroke-dasharray:none"
       id="path4599"
       d="m 119.97334,72.846825 c 0,0.654058 -0.53022,1.184277 -1.18428,1.184277 -0.65406,0 -1.18427,-0.530219 -1.18427,-1.184277 0,-0.654059 0.53021,-1.184278 1.18427,-1.184278 0.65406,0 1.18428,0.530219 1.18428,1.184278 z" /></g><g
     transform="matrix(-11.298672,0,0,-11.298672,1682.5607,1023.921)"
     class="UnoptimicedTransforms"
     style="display:none;fill:#ffced1;fill-opacity:0.891528"
     id="g4607"><path
       transform="scale(-1,1)"
       style="fill:#ffced1;fill-opacity:0.891528;stroke-width:0.168874;stroke-dasharray:none"
       id="path4603"
       d="m -118.78907,73.170021 c 0.14909,0 0.26912,0.270863 0.26912,0.607315 v 8.194324 c 0,0.336452 -0.12003,0.607315 -0.26912,0.607315 -0.14909,0 -0.26911,-0.270863 -0.26911,-0.607315 v -8.194324 c 0,-0.336452 0.12002,-0.607315 0.26911,-0.607315 z" /><path
       style="fill:#ffced1;fill-opacity:0.891528;stroke-width:0.264999;stroke-dasharray:none"
       id="path4605"
       d="m 119.97334,72.846825 c 0,0.654058 -0.53022,1.184277 -1.18428,1.184277 -0.65406,0 -1.18427,-0.530219 -1.18427,-1.184277 0,-0.654059 0.53021,-1.184278 1.18427,-1.184278 0.65406,0 1.18428,0.530219 1.18428,1.184278 z" /></g><g
     transform="matrix(-9.1408177,6.6411928,-6.6411928,-9.1408177,1992.2924,51.095481)"
     class="UnoptimicedTransforms"
     style="display:none;fill:#ffced1;fill-opacity:0.891528"
     id="g4613"><path
       transform="scale(-1,1)"
       style="fill:#ffced1;fill-opacity:0.891528;stroke-width:0.168874;stroke-dasharray:none"
       id="path4609"
       d="m -118.78907,73.170021 c 0.14909,0 0.26912,0.270863 0.26912,0.607315 v 8.194324 c 0,0.336452 -0.12003,0.607315 -0.26912,0.607315 -0.14909,0 -0.26911,-0.270863 -0.26911,-0.607315 v -8.194324 c 0,-0.336452 0.12002,-0.607315 0.26911,-0.607315 z" /><path
       style="fill:#ffced1;fill-opacity:0.891528;stroke-width:0.264999;stroke-dasharray:none"
       id="path4611"
       d="m 119.97334,72.846825 c 0,0.654058 -0.53022,1.184277 -1.18428,1.184277 -0.65406,0 -1.18427,-0.530219 -1.18427,-1.184277 0,-0.654059 0.53021,-1.184278 1.18427,-1.184278 0.65406,0 1.18428,0.530219 1.18428,1.184278 z" /></g><g
     transform="matrix(-3.4914817,10.745676,-10.745676,-3.4914817,1671.0582,-917.99265)"
     class="UnoptimicedTransforms"
     style="fill:#ffced1;fill-opacity:0.891528"
     id="g4619"><path
       transform="scale(-1,1)"
       style="fill:#ffced1;fill-opacity:0.891528;stroke-width:0.168874;stroke-dasharray:none"
       id="path4615"
       d="m -118.78907,73.170021 c 0.14909,0 0.26912,0.270863 0.26912,0.607315 v 8.194324 c 0,0.336452 -0.12003,0.607315 -0.26912,0.607315 -0.14909,0 -0.26911,-0.270863 -0.26911,-0.607315 v -8.194324 c 0,-0.336452 0.12002,-0.607315 0.26911,-0.607315 z" /><path
       style="fill:#ffced1;fill-opacity:0.891528;stroke-width:0.264999;stroke-dasharray:none"
       id="path4617"
       d="m 119.97334,72.846825 c 0,0.654058 -0.53022,1.184277 -1.18428,1.184277 -0.65406,0 -1.18427,-0.530219 -1.18427,-1.184277 0,-0.654059 0.53021,-1.184278 1.18427,-1.184278 0.65406,0 1.18428,0.530219 1.18428,1.184278 z" /></g><g
     transform="matrix(3.4914817,10.745676,-10.745676,3.4914817,841.55856,-1513.1847)"
     class="UnoptimicedTransforms"
     style="fill:#ffced1;fill-opacity:0.891528"
     id="g4625"><path
       transform="scale(-1,1)"
       style="fill:#ffced1;fill-opacity:0.891528;stroke-width:0.168874;stroke-dasharray:none"
       id="path4621"
       d="m -118.78907,73.170021 c 0.14909,0 0.26912,0.270863 0.26912,0.607315 v 8.194324 c 0,0.336452 -0.12003,0.607315 -0.26912,0.607315 -0.14909,0 -0.26911,-0.270863 -0.26911,-0.607315 v -8.194324 c 0,-0.336452 0.12002,-0.607315 0.26911,-0.607315 z" /><path
       style="fill:#ffced1;fill-opacity:0.891528;stroke-width:0.264999;stroke-dasharray:none"
       id="path4623"
       d="m 119.97334,72.846825 c 0,0.654058 -0.53022,1.184277 -1.18428,1.184277 -0.65406,0 -1.18427,-0.530219 -1.18427,-1.184277 0,-0.654059 0.53021,-1.184278 1.18427,-1.184278 0.65406,0 1.18428,0.530219 1.18428,1.184278 z" /></g><g
     transform="matrix(9.1408177,6.6411928,-6.6411928,9.1408177,-179.36585,-1507.1375)"
     class="UnoptimicedTransforms"
     style="fill:#ffced1;fill-opacity:0.891528"
     id="g4631"><path
       transform="scale(-1,1)"
       style="fill:#ffced1;fill-opacity:0.891528;stroke-width:0.168874;stroke-dasharray:none"
       id="path4627"
       d="m -118.78907,73.170021 c 0.14909,0 0.26912,0.270863 0.26912,0.607315 v 8.194324 c 0,0.336452 -0.12003,0.607315 -0.26912,0.607315 -0.14909,0 -0.26911,-0.270863 -0.26911,-0.607315 v -8.194324 c 0,-0.336452 0.12002,-0.607315 0.26911,-0.607315 z" /><path
       style="fill:#ffced1;fill-opacity:0.891528;stroke-width:0.264999;stroke-dasharray:none"
       id="path4629"
       d="m 119.97334,72.846825 c 0,0.654058 -0.53022,1.184277 -1.18428,1.184277 -0.65406,0 -1.18427,-0.530219 -1.18427,-1.184277 0,-0.654059 0.53021,-1.184278 1.18427,-1.184278 0.65406,0 1.18428,0.530219 1.18428,1.184278 z" /></g><path
     d="M 482.876,57.5162 C 524.616,81.3039 630.053,39.7503 677.553,16 c 9.425,21.0947 -3.927,36.467 -11.782,41.5162 -17.953,7.1812 -35.531,36.28 -42.077,49.9317 23.788,17.9531 15.148,39.6461 7.855,48.2491 -58.796,46.228 -244.797,54.045 -330.447,52.175 C 212.39,216.537 84.9567,143.364 19.0563,96.628 8.5683,89.1901 -1.72522,78.3733 0.256348,65.6692 1.18634,59.7069 4.56421,56.4427 9.04083,54.9445 24.8076,49.6677 40.2657,62.5304 54.715,70.7558 c 108.783,61.9272 243.368,53.2132 300.121,40.0583 -70.373,8.3259 -118,-0.5262 -145.562,-11.3094 -17.583,-6.8793 -29.802,-28.0484 -16.931,-41.8632 13.515,-14.5074 39.878,-13.0635 55.461,-9.1017 53.41,10.3229 101.546,4.3012 118.938,0 35.457,-7.1812 92.196,2.9921 116.134,8.9764 z"
     fill="#ffc294"
     id="path206" /></svg>
