<svg id="visual" viewBox="0 0 1284 2778" width="1284" height="2778" xmlns="http://www.w3.org/2000/svg" xmlns:xlink="http://www.w3.org/1999/xlink" version="1.1"><path d="M0 1834L30.5 1825.7C61 1817.3 122 1800.7 183.2 1807.5C244.3 1814.3 305.7 1844.7 366.8 1823.3C428 1802 489 1729 550.2 1742C611.3 1755 672.7 1854 733.8 1865.3C795 1876.7 856 1800.3 917.2 1795.8C978.3 1791.3 1039.7 1858.7 1100.8 1850.3C1162 1842 1223 1758 1253.5 1716L1284 1674L1284 2779L1253.5 2779C1223 2779 1162 2779 1100.8 2779C1039.7 2779 978.3 2779 917.2 2779C856 2779 795 2779 733.8 2779C672.7 2779 611.3 2779 550.2 2779C489 2779 428 2779 366.8 2779C305.7 2779 244.3 2779 183.2 2779C122 2779 61 2779 30.5 2779L0 2779Z" fill="#98e2ea"></path><path d="M0 1853L30.5 1906.5C61 1960 122 2067 183.2 2098.8C244.3 2130.7 305.7 2087.3 366.8 2033.7C428 1980 489 1916 550.2 1925.3C611.3 1934.7 672.7 2017.3 733.8 2015.2C795 2013 856 1926 917.2 1894.2C978.3 1862.3 1039.7 1885.7 1100.8 1904.2C1162 1922.7 1223 1936.3 1253.5 1943.2L1284 1950L1284 2779L1253.5 2779C1223 2779 1162 2779 1100.8 2779C1039.7 2779 978.3 2779 917.2 2779C856 2779 795 2779 733.8 2779C672.7 2779 611.3 2779 550.2 2779C489 2779 428 2779 366.8 2779C305.7 2779 244.3 2779 183.2 2779C122 2779 61 2779 30.5 2779L0 2779Z" fill="#b4eaef"></path><path d="M0 2058L30.5 2104.5C61 2151 122 2244 183.2 2269.3C244.3 2294.7 305.7 2252.3 366.8 2211C428 2169.7 489 2129.3 550.2 2103.8C611.3 2078.3 672.7 2067.7 733.8 2103C795 2138.3 856 2219.7 917.2 2236.3C978.3 2253 1039.7 2205 1100.8 2184.3C1162 2163.7 1223 2170.3 1253.5 2173.7L1284 2177L1284 2779L1253.5 2779C1223 2779 1162 2779 1100.8 2779C1039.7 2779 978.3 2779 917.2 2779C856 2779 795 2779 733.8 2779C672.7 2779 611.3 2779 550.2 2779C489 2779 428 2779 366.8 2779C305.7 2779 244.3 2779 183.2 2779C122 2779 61 2779 30.5 2779L0 2779Z" fill="#cef1f4"></path><path d="M0 2333L30.5 2363.3C61 2393.7 122 2454.3 183.2 2461.2C244.3 2468 305.7 2421 366.8 2414.5C428 2408 489 2442 550.2 2440C611.3 2438 672.7 2400 733.8 2394C795 2388 856 2414 917.2 2419.7C978.3 2425.3 1039.7 2410.7 1100.8 2398.5C1162 2386.3 1223 2376.7 1253.5 2371.8L1284 2367L1284 2779L1253.5 2779C1223 2779 1162 2779 1100.8 2779C1039.7 2779 978.3 2779 917.2 2779C856 2779 795 2779 733.8 2779C672.7 2779 611.3 2779 550.2 2779C489 2779 428 2779 366.8 2779C305.7 2779 244.3 2779 183.2 2779C122 2779 61 2779 30.5 2779L0 2779Z" fill="#e7f8f9"></path><path d="M0 2603L30.5 2587.8C61 2572.7 122 2542.3 183.2 2528C244.3 2513.7 305.7 2515.3 366.8 2522.7C428 2530 489 2543 550.2 2561.3C611.3 2579.7 672.7 2603.3 733.8 2612.3C795 2621.3 856 2615.7 917.2 2617.7C978.3 2619.7 1039.7 2629.3 1100.8 2608.3C1162 2587.3 1223 2535.7 1253.5 2509.8L1284 2484L1284 2779L1253.5 2779C1223 2779 1162 2779 1100.8 2779C1039.7 2779 978.3 2779 917.2 2779C856 2779 795 2779 733.8 2779C672.7 2779 611.3 2779 550.2 2779C489 2779 428 2779 366.8 2779C305.7 2779 244.3 2779 183.2 2779C122 2779 61 2779 30.5 2779L0 2779Z" fill="#ffffff"></path></svg>