<?xml version="1.0" encoding="UTF-8" standalone="no"?>
<!-- Created with Inkscape (http://www.inkscape.org/) -->

<svg
   width="60mm"
   height="60mm"
   viewBox="0 0 60 60"
   version="1.1"
   id="svg307"
   xml:space="preserve"
   inkscape:version="1.2.2 (b0a8486541, 2022-12-01)"
   sodipodi:docname="logo.svg"
   inkscape:export-filename="../assets/source/logo_rounded.svg"
   inkscape:export-xdpi="108.37"
   inkscape:export-ydpi="108.37"
   xmlns:inkscape="http://www.inkscape.org/namespaces/inkscape"
   xmlns:sodipodi="http://sodipodi.sourceforge.net/DTD/sodipodi-0.dtd"
   xmlns:xlink="http://www.w3.org/1999/xlink"
   xmlns="http://www.w3.org/2000/svg"
   xmlns:svg="http://www.w3.org/2000/svg"><sodipodi:namedview
     id="namedview309"
     pagecolor="#f6f6f6"
     bordercolor="#eeeeee"
     borderopacity="1"
     inkscape:showpageshadow="0"
     inkscape:pageopacity="0"
     inkscape:pagecheckerboard="0"
     inkscape:deskcolor="#c6c6c6"
     inkscape:document-units="mm"
     showgrid="false"
     showguides="false"
     inkscape:zoom="2.3167814"
     inkscape:cx="99.707292"
     inkscape:cy="97.549126"
     inkscape:window-width="1236"
     inkscape:window-height="954"
     inkscape:window-x="22"
     inkscape:window-y="35"
     inkscape:window-maximized="1"
     inkscape:current-layer="layer1" /><defs
     id="defs304"><linearGradient
       inkscape:collect="always"
       id="linearGradient3447"><stop
         style="stop-color:#ffcaca;stop-opacity:1;"
         offset="0"
         id="stop3443" /><stop
         style="stop-color:#ffcccc;stop-opacity:0;"
         offset="1"
         id="stop3445" /></linearGradient><linearGradient
       inkscape:collect="always"
       id="linearGradient3431"><stop
         style="stop-color:#ffcaca;stop-opacity:1;"
         offset="0"
         id="stop3427" /><stop
         style="stop-color:#ffcaca;stop-opacity:0;"
         offset="1"
         id="stop3429" /></linearGradient><linearGradient
       inkscape:collect="always"
       id="linearGradient3345"><stop
         style="stop-color:#ffd97f;stop-opacity:1;"
         offset="0"
         id="stop3341" /><stop
         style="stop-color:#ffe0a1;stop-opacity:1;"
         offset="1"
         id="stop3343" /></linearGradient><linearGradient
       inkscape:collect="always"
       id="linearGradient1066"><stop
         style="stop-color:#9bdae3;stop-opacity:1;"
         offset="0.60096639"
         id="stop1092" /><stop
         style="stop-color:#9bcfe3;stop-opacity:1;"
         offset="0.87993747"
         id="stop1070" /></linearGradient><inkscape:path-effect
       effect="copy_rotate"
       starting_point="119.97334,85.234879"
       origin="118.78906,85.234879"
       id="path-effect6747"
       is_visible="true"
       lpeversion="1.2"
       lpesatellites=""
       method="normal"
       num_copies="10"
       starting_angle="0"
       rotation_angle="36"
       gap="-0.01"
       copies_to_360="true"
       mirror_copies="false"
       split_items="false"
       link_styles="false" /><inkscape:path-effect
       effect="copy_rotate"
       starting_point="217.93355,98.287499"
       origin="118.78906,85.234879"
       id="path-effect1725"
       is_visible="true"
       lpeversion="1.2"
       lpesatellites="#path6985 | #path6987 | #path6989 | #path6991"
       method="normal"
       num_copies="5"
       starting_angle="-7.5"
       rotation_angle="72"
       gap="-0.01"
       copies_to_360="true"
       mirror_copies="false"
       split_items="true"
       link_styles="false" /><inkscape:path-effect
       effect="copy_rotate"
       starting_point="127.13282,86.333356"
       origin="118.78906,85.234879"
       id="path-effect1676"
       is_visible="true"
       lpeversion="1.2"
       lpesatellites=""
       method="normal"
       num_copies="5"
       starting_angle="-7.5"
       rotation_angle="72"
       gap="-0.01"
       copies_to_360="true"
       mirror_copies="false"
       split_items="false"
       link_styles="false" /><radialGradient
       inkscape:collect="always"
       xlink:href="#linearGradient1066"
       id="radialGradient1159"
       cx="30"
       cy="30"
       fx="30"
       fy="30"
       r="30"
       gradientUnits="userSpaceOnUse"
       spreadMethod="reflect" /><radialGradient
       inkscape:collect="always"
       xlink:href="#linearGradient3345"
       id="radialGradient3349"
       cx="30.000002"
       cy="29.999994"
       fx="30.000002"
       fy="29.999994"
       r="3.5373683"
       gradientUnits="userSpaceOnUse" /><linearGradient
       inkscape:collect="always"
       xlink:href="#linearGradient3447"
       id="linearGradient3611"
       x1="112.47242"
       y1="71.676491"
       x2="129.42044"
       y2="71.676491"
       gradientUnits="userSpaceOnUse" /><linearGradient
       inkscape:collect="always"
       xlink:href="#linearGradient3431"
       id="linearGradient3613"
       x1="112.47242"
       y1="71.676491"
       x2="129.42044"
       y2="71.676491"
       gradientUnits="userSpaceOnUse" /><linearGradient
       inkscape:collect="always"
       xlink:href="#linearGradient3431"
       id="linearGradient3615"
       x1="112.47242"
       y1="71.676491"
       x2="129.42044"
       y2="71.676491"
       gradientUnits="userSpaceOnUse" /><linearGradient
       inkscape:collect="always"
       xlink:href="#linearGradient3431"
       id="linearGradient3617"
       x1="112.47242"
       y1="71.676491"
       x2="129.42044"
       y2="71.676491"
       gradientUnits="userSpaceOnUse" /><linearGradient
       inkscape:collect="always"
       xlink:href="#linearGradient3431"
       id="linearGradient3619"
       x1="112.47242"
       y1="71.676491"
       x2="129.42044"
       y2="71.676491"
       gradientUnits="userSpaceOnUse" /><filter
       inkscape:label="Blur Double"
       inkscape:menu="Blurs"
       inkscape:menu-tooltip="Overlays two copies with different blur amounts and modifiable blend and composite"
       style="color-interpolation-filters:sRGB;"
       id="filter1382"
       x="-0.85433852"
       y="-0.85433852"
       width="2.708677"
       height="2.708677"><feGaussianBlur
         stdDeviation="2.5084249"
         result="fbSourceGraphic"
         id="feGaussianBlur1374" /><feGaussianBlur
         stdDeviation="0.01"
         in="SourceGraphic"
         result="result1"
         id="feGaussianBlur1376" /><feComposite
         in2="result1"
         operator="arithmetic"
         in="fbSourceGraphic"
         k2="0.5"
         k3="0.5"
         result="result2"
         id="feComposite1378" /><feBlend
         in2="fbSourceGraphic"
         mode="normal"
         result="result3"
         id="feBlend1380" /></filter></defs><g
     inkscape:label="Layer 1"
     inkscape:groupmode="layer"
     id="layer1"><rect
       style="opacity:1;fill:url(#radialGradient1159);fill-opacity:1;stroke-width:0.345;stroke-dasharray:none"
       id="rect6803"
       width="60"
       height="60"
       x="0"
       y="0"
       rx="13.482677"
       ry="13.482677" /><path
       id="path1530"
       style="opacity:1;fill:#ff9ba2;fill-opacity:1;stroke-width:0.265;stroke-dasharray:none"
       d="m 126.04691,60.153241 -4.27541,4.203198 -3.03883,-5.161966 c -3.36809,2.463741 -5.58276,6.197141 -6.13022,10.334092 -0.75041,5.724476 1.78785,11.383458 6.56206,14.629944 5.45196,-1.900043 9.36859,-6.709251 10.12547,-12.432988 0.54396,-4.138396 -0.6277,-8.319268 -3.24307,-11.57228 z m -28.869105,10.428358 2.676303,5.36502 -5.848371,1.294959 c 1.302359,3.964586 4.168664,7.224545 7.933963,9.023601 5.21241,2.482639 11.37879,1.817334 15.94169,-1.719987 -0.1223,-5.772268 -3.48582,-10.98334 -8.69553,-13.471904 -3.76775,-1.796174 -8.10607,-1.973813 -12.008055,-0.491689 z m 0.996912,30.678691 5.929463,-0.88743 -0.57567,5.96229 c 4.173,-0.0135 8.15914,-1.73212 11.03368,-4.7572 3.97186,-4.190117 5.24463,-10.26028 3.29045,-15.692951 -5.52754,-1.667415 -11.52295,-0.07883 -15.49961,4.106893 -2.872558,3.0283 -4.382115,7.099385 -4.178313,11.268398 z m 29.485233,8.53212 0.98831,-5.91349 5.49259,2.38995 c 1.27669,-3.97293 0.87396,-8.295062 -1.11478,-11.963716 -2.75767,-5.072275 -8.13743,-8.158538 -13.90808,-7.978792 -3.29391,4.741749 -3.63575,10.934622 -0.88375,16.010108 1.99241,3.66776 5.39776,6.36147 9.42571,7.45594 z m 17.22597,-25.405555 -5.31866,-2.767301 3.97027,-4.485231 c -3.38395,-2.44191 -7.619,-3.3945 -11.72265,-2.636779 -5.67618,1.05528 -10.27383,5.218029 -11.88611,10.761789 3.49179,4.597977 9.27593,6.836794 14.95342,5.787895 4.10394,-0.761496 7.71812,-3.167778 10.00373,-6.660373 z"
       inkscape:path-effect="#path-effect1676"
       inkscape:original-d="m 122.71101,59.420478 -3.69021,4.725293 -3.6866,-4.721159 a 15.288897,15.288897 0 0 0 -4.72891,11.045838 15.288897,15.288897 0 0 0 8.41551,13.648262 15.288897,15.288897 0 0 0 8.41602,-13.648262 15.288897,15.288897 0 0 0 -4.72581,-11.049972 z"
       class="UnoptimicedTransforms"
       transform="matrix(1.0616533,0,0,1.0616532,-96.810049,-60.489889)" /><path
       id="path1719"
       style="opacity:1;fill:url(#linearGradient3611);fill-opacity:1;stroke-width:0.265348;stroke-dasharray:none"
       d="m 126.04691,60.153241 -4.27541,4.203198 -3.03883,-5.161966 c -3.36809,2.463741 -5.58276,6.197141 -6.13022,10.334092 -0.75041,5.724476 1.78785,11.383458 6.56206,14.629944 5.45196,-1.900043 9.36859,-6.709251 10.12547,-12.432988 0.54396,-4.138396 -0.6277,-8.319268 -3.24307,-11.57228 z"
       inkscape:path-effect="#path-effect1725"
       inkscape:original-d="m 122.71101,59.420478 -3.69021,4.725293 -3.6866,-4.721159 a 15.288897,15.288897 0 0 0 -4.72891,11.045838 15.288897,15.288897 0 0 0 8.41551,13.648262 15.288897,15.288897 0 0 0 8.41602,-13.648262 15.288897,15.288897 0 0 0 -4.72581,-11.049972 z"
       class="UnoptimicedTransforms"
       transform="matrix(1.0491007,-0.0814568,0.0814568,1.0491006,-102.63792,-49.601797)" /><path
       transform="matrix(0.24671992,-1.0229255,1.0229256,0.24671989,-87.569841,130.62521)"
       style="opacity:1;fill:url(#linearGradient3613);fill-opacity:1;stroke-width:0.265348;stroke-dasharray:none"
       class="UnoptimicedTransforms"
       id="path6985"
       d="m 126.04691,60.153241 -4.27541,4.203198 -3.03883,-5.161966 c -3.36809,2.463741 -5.58276,6.197141 -6.13022,10.334092 -0.75041,5.724476 1.78785,11.383458 6.56206,14.629944 5.45196,-1.900043 9.36859,-6.709251 10.12547,-12.432988 0.54396,-4.138396 -0.6277,-8.319268 -3.24307,-11.57228 z" /><path
       transform="matrix(-0.8966194,-0.55074593,0.55074598,-0.89661932,88.239358,171.8464)"
       style="opacity:1;fill:url(#linearGradient3615);fill-opacity:1;stroke-width:0.265348;stroke-dasharray:none"
       class="UnoptimicedTransforms"
       id="path6987"
       d="m 126.04691,60.153241 -4.27541,4.203198 -3.03883,-5.161966 c -3.36809,2.463741 -5.58276,6.197141 -6.13022,10.334092 -0.75041,5.724476 1.78785,11.383458 6.56206,14.629944 5.45196,-1.900043 9.36859,-6.709251 10.12547,-12.432988 0.54396,-4.138396 -0.6277,-8.319268 -3.24307,-11.57228 z" /><path
       transform="matrix(-0.80086119,0.6825458,-0.68254586,-0.80086111,182.23699,17.324315)"
       style="opacity:1;fill:url(#linearGradient3617);fill-opacity:1;stroke-width:0.265348;stroke-dasharray:none"
       class="UnoptimicedTransforms"
       id="path6989"
       d="m 126.04691,60.153241 -4.27541,4.203198 -3.03883,-5.161966 c -3.36809,2.463741 -5.58276,6.197141 -6.13022,10.334092 -0.75041,5.724476 1.78785,11.383458 6.56206,14.629944 5.45196,-1.900043 9.36859,-6.709251 10.12547,-12.432988 0.54396,-4.138396 -0.6277,-8.319268 -3.24307,-11.57228 z" /><path
       transform="matrix(0.40165997,0.97258243,-0.97258252,0.40165993,64.11187,-119.6256)"
       style="opacity:1;fill:url(#linearGradient3619);fill-opacity:1;stroke-width:0.265348;stroke-dasharray:none"
       class="UnoptimicedTransforms"
       id="path6991"
       d="m 126.04691,60.153241 -4.27541,4.203198 -3.03883,-5.161966 c -3.36809,2.463741 -5.58276,6.197141 -6.13022,10.334092 -0.75041,5.724476 1.78785,11.383458 6.56206,14.629944 5.45196,-1.900043 9.36859,-6.709251 10.12547,-12.432988 0.54396,-4.138396 -0.6277,-8.319268 -3.24307,-11.57228 z" /><g
       id="g6745"
       inkscape:path-effect="#path-effect6747"
       class="UnoptimicedTransforms"
       transform="matrix(0.98493717,0,0,0.98493714,-86.999759,-53.951003)"
       style="fill-opacity:0.89152789;fill:#ffced1"><path
         style="fill:#ffced1;fill-opacity:0.89152789;stroke-width:0.168874;stroke-dasharray:none"
         id="rect1783"
         width="0.53823256"
         height="9.4089537"
         x="-119.05818"
         y="73.170021"
         ry="0.60731512"
         rx="0.26911628"
         transform="scale(-1,1)"
         d="m -118.78907,73.170021 c 0.14909,0 0.26912,0.270863 0.26912,0.607315 v 8.194324 c 0,0.336452 -0.12003,0.607315 -0.26912,0.607315 -0.14909,0 -0.26911,-0.270863 -0.26911,-0.607315 v -8.194324 c 0,-0.336452 0.12002,-0.607315 0.26911,-0.607315 z m 7.09155,2.30418 c 0.12062,0.08763 0.0585,0.377315 -0.13925,0.649511 l -4.8165,6.629346 c -0.19776,0.272196 -0.45408,0.420779 -0.57469,0.333146 -0.12062,-0.08763 -0.0585,-0.377315 0.13925,-0.649511 l 4.8165,-6.629347 c 0.19776,-0.272196 0.45407,-0.420778 0.57469,-0.333145 z m 4.38282,6.032427 c 0.0461,0.141793 -0.17444,0.339646 -0.49443,0.443615 l -7.79326,2.532185 c -0.31999,0.10397 -0.61469,0.07352 -0.66076,-0.06827 -0.0461,-0.141793 0.17445,-0.339646 0.49443,-0.443615 l 7.79327,-2.532185 c 0.31998,-0.10397 0.61468,-0.07352 0.66075,0.06827 z m 0,7.456492 c -0.0461,0.141793 -0.34076,0.172244 -0.66075,0.06827 l -7.79326,-2.532185 c -0.31999,-0.10397 -0.5405,-0.301822 -0.49443,-0.443616 0.0461,-0.141793 0.34076,-0.172243 0.66075,-0.06827 l 7.79326,2.532185 c 0.31999,0.10397 0.5405,0.301823 0.49443,0.443616 z m -4.38281,6.032431 c -0.12062,0.08763 -0.37693,-0.06095 -0.57469,-0.333146 l -4.8165,-6.629347 c -0.19776,-0.272196 -0.25987,-0.561877 -0.13925,-0.649511 0.12061,-0.08763 0.37692,0.06095 0.57469,0.333146 l 4.8165,6.629347 c 0.19776,0.272196 0.25987,0.561878 0.13925,0.649511 z m -7.09154,2.304186 c -0.14909,0 -0.26912,-0.270863 -0.26912,-0.607315 v -8.194324 c 0,-0.336452 0.12003,-0.607315 0.26912,-0.607315 0.14909,0 0.26911,0.270863 0.26911,0.607315 v 8.194324 c 0,0.336452 -0.12002,0.607315 -0.26911,0.607315 z m -7.09155,-2.30418 c -0.12062,-0.08763 -0.0585,-0.377315 0.13925,-0.649511 l 4.8165,-6.629346 c 0.19776,-0.272196 0.45408,-0.420779 0.57469,-0.333146 0.12062,0.08763 0.0585,0.377315 -0.13925,0.649511 l -4.8165,6.629347 c -0.19776,0.272196 -0.45407,0.420778 -0.57469,0.333145 z m -4.38282,-6.032427 c -0.0461,-0.141793 0.17444,-0.339646 0.49443,-0.443615 l 7.79326,-2.532185 c 0.31999,-0.10397 0.61469,-0.07352 0.66076,0.06827 0.0461,0.141793 -0.17445,0.339646 -0.49443,0.443615 l -7.79327,2.532185 c -0.31998,0.10397 -0.61468,0.07352 -0.66075,-0.06827 z m 0,-7.456492 c 0.0461,-0.141793 0.34076,-0.172244 0.66075,-0.06827 l 7.79326,2.532185 c 0.31999,0.10397 0.5405,0.301822 0.49443,0.443616 -0.0461,0.141793 -0.34076,0.172243 -0.66075,0.06827 l -7.79326,-2.532185 c -0.31999,-0.10397 -0.5405,-0.301823 -0.49443,-0.443616 z m 4.38281,-6.032431 c 0.12062,-0.08763 0.37693,0.06095 0.57469,0.333146 l 4.8165,6.629347 c 0.19776,0.272196 0.25987,0.561877 0.13925,0.649511 -0.12061,0.08763 -0.37692,-0.06095 -0.57469,-0.333146 l -4.8165,-6.629347 c -0.19776,-0.272196 -0.25987,-0.561878 -0.13925,-0.649511 z"
         sodipodi:type="rect" /><circle
         style="fill:#ffced1;fill-opacity:0.89152789;stroke-width:0.264999;stroke-dasharray:none"
         id="path6731"
         cx="118.78906"
         cy="72.846825"
         r="1.1842773"
         d="m 119.97334,72.846825 c 0,0.654058 -0.53022,1.184277 -1.18428,1.184277 -0.65406,0 -1.18427,-0.530219 -1.18427,-1.184277 0,-0.654059 0.53021,-1.184278 1.18427,-1.184278 0.65406,0 1.18428,0.530219 1.18428,1.184278 z m -7.50769,1.669805 c 0.38444,0.529145 0.26714,1.269756 -0.262,1.654201 -0.52915,0.384446 -1.26976,0.267145 -1.6542,-0.261999 -0.38445,-0.529145 -0.26715,-1.269756 0.262,-1.654201 0.52914,-0.384446 1.26975,-0.267145 1.6542,0.261999 z m -5.09237,5.763813 c 0.62205,0.202115 0.96247,0.87023 0.76036,1.492276 -0.20212,0.622047 -0.87023,0.962468 -1.49228,0.760353 -0.62205,-0.202115 -0.96247,-0.87023 -0.76035,-1.492277 0.20211,-0.622046 0.87023,-0.962467 1.49227,-0.760352 z m -0.73192,7.656238 c 0.62204,-0.202115 1.29016,0.138307 1.49227,0.760353 0.20212,0.622047 -0.1383,1.290161 -0.76035,1.492277 -0.62205,0.202115 -1.29016,-0.138307 -1.49228,-0.760353 -0.20211,-0.622047 0.13831,-1.290162 0.76036,-1.492277 z m 3.90808,6.624242 c 0.38445,-0.529144 1.12506,-0.646445 1.6542,-0.261999 0.52915,0.384445 0.64645,1.125056 0.262,1.654201 -0.38444,0.529144 -1.12505,0.646445 -1.6542,0.261999 -0.52914,-0.384445 -0.64644,-1.125056 -0.262,-1.654201 z m 7.05534,3.06201 c 0,-0.654058 0.53022,-1.184277 1.18428,-1.184277 0.65406,0 1.18427,0.530219 1.18427,1.184277 0,0.654059 -0.53021,1.184278 -1.18427,1.184278 -0.65406,0 -1.18428,-0.530219 -1.18428,-1.184278 z m 7.50769,-1.669805 c -0.38444,-0.529145 -0.26714,-1.269756 0.262,-1.654201 0.52915,-0.384446 1.26976,-0.267145 1.6542,0.261999 0.38445,0.529145 0.26715,1.269756 -0.262,1.654201 -0.52914,0.384446 -1.26975,0.267145 -1.6542,-0.261999 z m 5.09237,-5.763813 c -0.62205,-0.202115 -0.96247,-0.87023 -0.76036,-1.492276 0.20212,-0.622047 0.87023,-0.962468 1.49228,-0.760353 0.62205,0.202115 0.96247,0.87023 0.76035,1.492277 -0.20211,0.622046 -0.87023,0.962467 -1.49227,0.760352 z m 0.73192,-7.656238 c -0.62204,0.202115 -1.29016,-0.138307 -1.49227,-0.760353 -0.20212,-0.622047 0.1383,-1.290161 0.76035,-1.492277 0.62205,-0.202115 1.29016,0.138307 1.49228,0.760353 0.20211,0.622047 -0.13831,1.290162 -0.76036,1.492277 z m -3.90808,-6.624242 c -0.38445,0.529144 -1.12506,0.646445 -1.6542,0.261999 -0.52915,-0.384445 -0.64645,-1.125056 -0.262,-1.654201 0.38444,-0.529144 1.12505,-0.646445 1.6542,-0.261999 0.52914,0.384445 0.64644,1.125056 0.262,1.654201 z" /></g><circle
       style="fill:url(#radialGradient3349);fill-opacity:1;stroke-width:0.387938"
       id="path704"
       cx="30.000002"
       cy="29.999994"
       r="3.5373683" /><circle
       style="fill:url(#radialGradient3349);fill-opacity:1;stroke-width:0.387938;filter:url(#filter1382)"
       id="circle528"
       cx="30.000002"
       cy="29.999994"
       r="3.5373683" /></g></svg>
