<svg id="visual" viewBox="0 0 450 900" width="450" height="900" xmlns="http://www.w3.org/2000/svg" xmlns:xlink="http://www.w3.org/1999/xlink" version="1.1"><path d="M0 326L9.3 323.8C18.7 321.7 37.3 317.3 56.2 302.5C75 287.7 94 262.3 112.8 262.2C131.7 262 150.3 287 169 271.8C187.7 256.7 206.3 201.3 225 185C243.7 168.7 262.3 191.3 281.2 194.7C300 198 319 182 337.8 180C356.7 178 375.3 190 394 210.3C412.7 230.7 431.3 259.3 440.7 273.7L450 288L450 0L440.7 0C431.3 0 412.7 0 394 0C375.3 0 356.7 0 337.8 0C319 0 300 0 281.2 0C262.3 0 243.7 0 225 0C206.3 0 187.7 0 169 0C150.3 0 131.7 0 112.8 0C94 0 75 0 56.2 0C37.3 0 18.7 0 9.3 0L0 0Z" fill="#38B4C0" stroke-linecap="round" stroke-linejoin="miter"></path></svg>