<svg width="147" height="123" viewBox="0 0 147 123" fill="none" xmlns="http://www.w3.org/2000/svg">
<path fill-rule="evenodd" clip-rule="evenodd" d="M66.0891 0.482256C54.7002 2.03635 44.1657 7.28727 35.9456 15.5074C20.1826 31.2701 16.0316 54.8115 25.4412 75.0821C26.2126 76.7442 26.7824 78.2641 26.7073 78.4597C26.6322 78.6553 20.8684 86.9035 13.8988 96.7889C6.9292 106.675 0.947085 115.221 0.60546 115.782C-0.162797 117.041 -0.206579 119.259 0.512144 120.476C0.803916 120.97 1.57857 121.675 2.23337 122.044L3.42411 122.713H73.4838H143.543L144.734 122.044C146.273 121.179 146.986 119.938 146.986 118.122C146.986 116.386 148.049 118.007 131.708 94.8302C125.17 85.5591 119.822 77.849 119.822 77.6975C119.822 77.5457 120.384 76.2153 121.07 74.7408C122.778 71.0715 124.129 66.8863 124.995 62.5778C126.045 57.3541 126.045 48.0979 124.995 42.8741C123.979 37.8181 122.684 34.0673 120.288 29.2372C117.606 23.831 114.735 19.8469 110.389 15.501C106.02 11.1321 102.029 8.25974 96.6529 5.61526C86.8478 0.792242 76.5239 -0.941448 66.0891 0.482256ZM79.5557 68.2976C82.9831 73.1663 86.4234 78.0644 87.2006 79.1816L88.6134 81.2135L86.0082 83.8187L83.4031 86.4238L78.977 82.0383C75.1264 78.2229 74.4169 77.6528 73.5189 77.6528C72.441 77.6528 72.3276 77.7436 66.5228 83.2453C65.2247 84.4757 64.0643 85.5191 63.9442 85.5642C63.8243 85.6089 62.5208 84.4338 61.0475 82.9529L58.3689 80.2602L58.9754 79.329C60.5196 76.9593 73.0179 59.4374 73.1617 59.4412C73.2508 59.4434 76.1283 63.4289 79.5557 68.2976ZM116.607 82.8015L123.28 92.1934L121.083 94.4158L118.887 96.6381L114.909 92.738C109.914 87.8405 109.917 87.8408 106.504 91.15L104.119 93.4621L103.512 92.668C103.179 92.2311 102.199 90.8662 101.334 89.6343L99.7634 87.395L104.759 80.3152C107.507 76.4215 109.795 73.2746 109.844 73.3226C109.893 73.3705 112.936 77.6362 116.607 82.8015ZM41.8277 79.909C44.3175 83.4348 46.4331 86.5235 46.5286 86.7728C46.6677 87.1355 43.927 91.5354 42.7676 92.8109C42.6081 92.9863 41.5877 92.2311 40.2851 90.9733C37.051 87.8511 36.9718 87.868 32.0439 92.7399L28.0969 96.6419L26.0235 94.5867C24.8829 93.4564 23.9497 92.4091 23.9497 92.2599C23.9497 91.8988 36.834 73.5223 37.0967 73.5089C37.2089 73.5031 39.3379 76.3831 41.8277 79.909ZM77.4836 88.2211C81.662 92.4293 82.6879 93.1579 83.9786 92.8339C84.4398 92.7182 86.4016 91.0621 88.3382 89.1536L91.8593 85.684L102.932 101.402L114.005 117.12L93.5844 117.202C82.3533 117.248 63.9924 117.248 52.7824 117.202L32.4006 117.12L43.5202 101.312C49.6359 92.6172 54.7836 85.3596 54.9593 85.1839C55.1725 84.9707 56.5297 86.1116 59.0333 88.6088C64.1615 93.7232 63.8985 93.7296 69.3044 88.3617C71.5152 86.1666 73.3981 84.369 73.4889 84.3671C73.5793 84.3655 75.3769 86.0995 77.4836 88.2211ZM32.8978 106.91C29.3358 111.963 26.352 116.364 26.2667 116.689C26.1206 117.248 25.5764 117.28 16.2426 117.28C10.8146 117.28 6.37314 117.205 6.37314 117.113C6.37314 116.99 19.7071 97.9327 20.3229 97.1759C20.3814 97.104 21.8607 98.4344 23.6104 100.132C26.5949 103.028 26.8732 103.219 28.1179 103.219C29.3831 103.219 29.6241 103.042 33.3283 99.3966L37.2121 95.5748L38.2932 96.6483L39.374 97.7218L32.8978 106.91ZM113.923 99.3839C117.511 102.931 117.893 103.219 119.016 103.219C120.122 103.219 120.513 102.942 123.384 100.121C125.303 98.2359 126.649 97.1411 126.822 97.3245C127.098 97.6169 137.795 112.696 139.902 115.762L140.945 117.28H130.613H120.282L119.944 116.401C119.758 115.918 117.313 112.287 114.511 108.332C111.708 104.377 108.937 100.445 108.351 99.5938L107.287 98.0461L108.506 96.7975C109.177 96.1108 109.797 95.549 109.885 95.549C109.972 95.549 111.789 97.2747 113.923 99.3839Z" fill="#FFB4B8"/>
</svg>
