<?xml version="1.0" encoding="UTF-8"?>
<!DOCTYPE svg PUBLIC "-//W3C//DTD SVG 1.1//EN" "http://www.w3.org/Graphics/SVG/1.1/DTD/svg11.dtd">
<svg version="1.2" width="104.69mm" height="189.28mm" viewBox="0 0 10469 18928" preserveAspectRatio="xMidYMid" fill-rule="evenodd" stroke-width="28.222" stroke-linejoin="round" xmlns="http://www.w3.org/2000/svg" xmlns:ooo="http://xml.openoffice.org/svg/export" xmlns:xlink="http://www.w3.org/1999/xlink" xmlns:presentation="http://sun.com/xmlns/staroffice/presentation" xmlns:smil="http://www.w3.org/2001/SMIL20/" xmlns:anim="urn:oasis:names:tc:opendocument:xmlns:animation:1.0" xml:space="preserve">
 <defs class="ClipPathGroup">
  <clipPath id="presentation_clip_path" clipPathUnits="userSpaceOnUse">
   <rect x="0" y="0" width="10469" height="18928"/>
  </clipPath>
  <clipPath id="presentation_clip_path_shrink" clipPathUnits="userSpaceOnUse">
   <rect x="10" y="18" width="10449" height="18891"/>
  </clipPath>
 </defs>
 <defs class="TextShapeIndex">
  <g ooo:slide="id1" ooo:id-list="id3 id4 id5 id6 id7 id8 id9 id10 id11 id12 id13 id14 id15 id16 id17 id18 id19 id20 id21 id22 id23 id24 id25 id26 id27 id28 id29 id30 id31 id32 id33 id34 id35 id36 id37 id38 id39 id40 id41 id42 id43 id44 id45 id46 id47 id48 id49 id50 id51 id52 id53 id54 id55 id56 id57 id58"/>
 </defs>
 <defs class="EmbeddedBulletChars">
  <g id="bullet-char-template-57356" transform="scale(0.00048828125,-0.00048828125)">
   <path d="M 580,1141 L 1163,571 580,0 -4,571 580,1141 Z"/>
  </g>
  <g id="bullet-char-template-57354" transform="scale(0.00048828125,-0.00048828125)">
   <path d="M 8,1128 L 1137,1128 1137,0 8,0 8,1128 Z"/>
  </g>
  <g id="bullet-char-template-10146" transform="scale(0.00048828125,-0.00048828125)">
   <path d="M 174,0 L 602,739 174,1481 1456,739 174,0 Z M 1358,739 L 309,1346 659,739 1358,739 Z"/>
  </g>
  <g id="bullet-char-template-10132" transform="scale(0.00048828125,-0.00048828125)">
   <path d="M 2015,739 L 1276,0 717,0 1260,543 174,543 174,936 1260,936 717,1481 1274,1481 2015,739 Z"/>
  </g>
  <g id="bullet-char-template-10007" transform="scale(0.00048828125,-0.00048828125)">
   <path d="M 0,-2 C -7,14 -16,27 -25,37 L 356,567 C 262,823 215,952 215,954 215,979 228,992 255,992 264,992 276,990 289,987 310,991 331,999 354,1012 L 381,999 492,748 772,1049 836,1024 860,1049 C 881,1039 901,1025 922,1006 886,937 835,863 770,784 769,783 710,716 594,584 L 774,223 C 774,196 753,168 711,139 L 727,119 C 717,90 699,76 672,76 641,76 570,178 457,381 L 164,-76 C 142,-110 111,-127 72,-127 30,-127 9,-110 8,-76 1,-67 -2,-52 -2,-32 -2,-23 -1,-13 0,-2 Z"/>
  </g>
  <g id="bullet-char-template-10004" transform="scale(0.00048828125,-0.00048828125)">
   <path d="M 285,-33 C 182,-33 111,30 74,156 52,228 41,333 41,471 41,549 55,616 82,672 116,743 169,778 240,778 293,778 328,747 346,684 L 369,508 C 377,444 397,411 428,410 L 1163,1116 C 1174,1127 1196,1133 1229,1133 1271,1133 1292,1118 1292,1087 L 1292,965 C 1292,929 1282,901 1262,881 L 442,47 C 390,-6 338,-33 285,-33 Z"/>
  </g>
  <g id="bullet-char-template-9679" transform="scale(0.00048828125,-0.00048828125)">
   <path d="M 813,0 C 632,0 489,54 383,161 276,268 223,411 223,592 223,773 276,916 383,1023 489,1130 632,1184 813,1184 992,1184 1136,1130 1245,1023 1353,916 1407,772 1407,592 1407,412 1353,268 1245,161 1136,54 992,0 813,0 Z"/>
  </g>
  <g id="bullet-char-template-8226" transform="scale(0.00048828125,-0.00048828125)">
   <path d="M 346,457 C 273,457 209,483 155,535 101,586 74,649 74,723 74,796 101,859 155,911 209,963 273,989 346,989 419,989 480,963 531,910 582,859 608,796 608,723 608,648 583,586 532,535 482,483 420,457 346,457 Z"/>
  </g>
  <g id="bullet-char-template-8211" transform="scale(0.00048828125,-0.00048828125)">
   <path d="M -4,459 L 1135,459 1135,606 -4,606 -4,459 Z"/>
  </g>
  <g id="bullet-char-template-61548" transform="scale(0.00048828125,-0.00048828125)">
   <path d="M 173,740 C 173,903 231,1043 346,1159 462,1274 601,1332 765,1332 928,1332 1067,1274 1183,1159 1299,1043 1357,903 1357,740 1357,577 1299,437 1183,322 1067,206 928,148 765,148 601,148 462,206 346,322 231,437 173,577 173,740 Z"/>
  </g>
 </defs>
 <g>
  <g id="id2" class="Master_Slide">
   <g id="bg-id2" class="Background"/>
   <g id="bo-id2" class="BackgroundObjects"/>
  </g>
 </g>
 <g class="SlideGroup">
  <g>
   <g id="container-id1">
    <g id="id1" class="Slide" clip-path="url(#presentation_clip_path)">
     <g class="Page">
      <g class="com.sun.star.drawing.ClosedBezierShape">
       <g id="id3">
        <rect class="BoundingBox" stroke="none" fill="none" x="4022" y="2234" width="1619" height="1278"/>
        <path fill="rgb(255,245,206)" stroke="none" d="M 5153,3168 C 5212,3057 5263,2943 5313,2828 5363,2713 5410,2597 5456,2480 5482,2412 5507,2344 5532,2276 5552,2309 5583,2365 5615,2428 L 5596,2466 5510,2635 5423,2804 C 5394,2860 5364,2916 5337,2973 5369,2918 5404,2866 5438,2812 L 5541,2653 5638,2499 C 5653,2657 5553,3004 5553,3004 5553,3004 5563,3035 5584,3078 5514,3206 5436,3296 5356,3331 L 5571,3253 C 5366,3402 5096,3492 4795,3508 4792,3508 4788,3508 4785,3509 4507,3522 4231,3468 4023,3369 4097,3322 4139,3215 4172,3174 4209,3126 4121,2640 4142,2611 4144,2609 4145,2605 4146,2599 4171,2690 4197,2781 4224,2871 4255,2972 4288,3073 4324,3172 4343,3221 4362,3270 4384,3318 4395,3342 4406,3366 4419,3389 4432,3412 4446,3435 4466,3453 4447,3434 4435,3411 4423,3387 4411,3364 4401,3339 4392,3315 4373,3266 4357,3216 4341,3166 4310,3066 4283,2964 4258,2862 4233,2760 4210,2658 4189,2555 4179,2503 4169,2452 4160,2400 4155,2375 4151,2349 4148,2324 4146,2311 4144,2298 4143,2286 4142,2280 4141,2273 4141,2268 L 4141,2260 C 4141,2258 4141,2259 4141,2258 L 4136,2257 C 4135,2243 4134,2235 4134,2235 L 4332,2521 C 4332,2521 4350,2537 4380,2552 L 4383,2587 C 4385,2612 4388,2638 4390,2663 4396,2713 4402,2763 4408,2813 4421,2914 4434,3014 4448,3113 4446,3013 4444,2912 4443,2811 4443,2761 4443,2710 4444,2660 4444,2635 4444,2610 4445,2585 L 4446,2571 C 4453,2572 4459,2573 4467,2574 4543,2577 4748,2565 4886,2565 5049,2565 5320,2535 5396,2490 5359,2599 5321,2707 5280,2815 5236,2931 5190,3047 5137,3160 5111,3217 5083,3273 5051,3326 5018,3379 4985,3434 4933,3470 4986,3436 5023,3382 5058,3331 5093,3279 5124,3224 5153,3168 Z"/>
       </g>
      </g>
      <g class="com.sun.star.drawing.ClosedBezierShape">
       <g id="id4">
        <rect class="BoundingBox" stroke="none" fill="none" x="4467" y="1675" width="760" height="522"/>
        <path fill="rgb(255,245,206)" stroke="none" d="M 4997,1836 L 4730,1850 4643,1729 C 4643,1729 4927,1709 4979,1712 5030,1714 5094,1729 5057,1782 L 4997,1836 Z M 5132,1704 L 5093,1676 C 4993,1677 4737,1679 4618,1681 4576,1745 4514,1897 4484,1937 4452,1979 4476,2126 4496,2170 4516,2215 4613,2188 4710,2183 4807,2178 4786,2085 4797,2040 4802,2019 4834,1993 4880,2008 4927,2022 4937,2137 5004,2167 5071,2198 5180,2180 5219,2155 5256,2131 5132,1704 5132,1704 Z"/>
       </g>
      </g>
      <g class="com.sun.star.drawing.ClosedBezierShape">
       <g id="id5">
        <rect class="BoundingBox" stroke="none" fill="none" x="3877" y="40" width="1705" height="2086"/>
        <path fill="rgb(255,245,206)" stroke="none" d="M 5446,849 L 5448,895 C 5448,895 5201,839 5143,826 5086,812 4969,983 4969,983 L 4941,996 C 4913,1008 4894,856 4929,757 5276,767 5438,821 5446,849 Z M 5050,1412 C 5037,1407 4878,1421 4878,1421 4878,1421 4847,1451 4840,1466 4833,1481 4740,1428 4740,1428 L 4662,1422 C 4662,1422 4692,1350 4775,1301 4836,1264 4849,1267 4968,1291 5003,1298 5063,1417 5050,1412 Z M 4653,1034 C 4637,1057 4612,916 4513,876 4414,835 4205,978 4154,1037 L 4150,963 C 4358,735 4627,773 4645,772 4645,772 4753,984 4703,1009 4653,1034 4668,1010 4653,1034 Z M 4519,946 L 4546,961 4579,1038 4522,1006 4486,1071 C 4486,1071 4454,1087 4419,1092 4384,1097 4348,1042 4348,1042 4348,1042 4328,1080 4295,1099 4261,1117 4190,1130 4158,1120 4126,1110 4228,1105 4293,1028 4357,951 4483,949 4519,946 Z M 4385,1143 C 4408,1140 4432,1137 4456,1136 4480,1136 4505,1134 4529,1139 4505,1144 4482,1150 4459,1155 4435,1159 4411,1163 4388,1166 4340,1172 4293,1177 4244,1175 4290,1158 4337,1150 4385,1143 Z M 5211,913 C 5375,913 5426,1021 5409,1022 L 5381,1024 5330,1026 5287,962 C 5287,962 5284,1017 5213,1026 5166,1025 5144,1007 5149,980 L 5117,967 C 5117,967 5039,1002 5061,990 5083,978 5045,913 5211,913 Z M 5217,1100 C 5255,1105 5294,1110 5334,1117 5314,1123 5294,1125 5274,1126 5253,1127 5234,1125 5214,1123 5174,1118 5134,1108 5097,1089 5138,1090 5177,1095 5217,1100 Z M 4767,305 C 4781,272 4796,240 4816,211 4835,182 4857,155 4884,132 4935,86 5003,62 5071,65 5139,66 5206,91 5268,122 5283,130 5299,139 5314,147 L 5359,175 5403,204 C 5417,215 5432,225 5447,235 5395,186 5339,142 5276,106 5245,88 5213,73 5179,61 5144,50 5108,42 5072,41 4998,38 4922,66 4871,119 4819,170 4785,236 4767,305 4720,307 4667,313 4617,322 4617,299 4609,276 4596,258 4582,239 4563,223 4542,212 4521,201 4498,194 4475,191 4452,187 4428,186 4404,188 4310,195 4223,241 4152,301 4081,362 4024,438 3980,519 3957,559 3938,601 3921,644 3913,665 3905,687 3897,709 3891,731 3884,753 3878,775 L 3903,711 C 3913,690 3922,669 3932,648 3951,607 3971,566 3996,528 4042,450 4098,377 4167,319 4234,260 4317,216 4406,206 4428,203 4451,203 4473,205 4495,208 4517,214 4537,223 4557,232 4576,244 4591,261 4605,278 4614,299 4617,322 4546,334 4481,351 4447,372 4364,422 4147,638 4139,758 4131,878 4045,1179 4053,1225 4061,1270 4083,1485 4092,1542 4098,1577 4095,1729 4093,1836 4067,1778 4037,1723 4011,1666 3978,1598 3949,1527 3931,1453 3913,1380 3908,1303 3915,1226 3906,1264 3903,1302 3902,1341 3902,1380 3906,1419 3913,1457 3927,1534 3956,1607 3989,1677 4022,1746 4060,1811 4092,1879 4091,1919 4091,1947 4091,1947 4091,1947 4106,1972 4128,2005 4128,2018 4126,2031 4122,2045 4117,2063 4107,2079 4095,2095 4109,2081 4121,2065 4128,2047 4132,2037 4134,2027 4136,2017 4178,2076 4237,2146 4271,2119 4325,2077 4451,1654 4466,1596 4480,1538 4737,1440 4777,1457 4818,1474 4823,1560 4795,1573 4777,1582 4728,1596 4684,1622 L 4994,1606 4946,1571 C 4946,1571 4931,1475 4939,1452 4946,1429 5185,1513 5245,1584 5305,1655 5378,2061 5379,2078 5380,2096 5470,2068 5509,2066 5509,2066 5506,1901 5499,1867 5491,1833 5609,1365 5573,1219 5537,1073 5510,778 5380,574 5249,369 4969,327 4879,309 4854,304 4813,303 4767,305 Z"/>
       </g>
      </g>
      <g class="com.sun.star.drawing.ClosedBezierShape">
       <g id="id6">
        <rect class="BoundingBox" stroke="none" fill="none" x="3319" y="8472" width="2241" height="525"/>
        <path fill="rgb(255,191,0)" stroke="none" d="M 5558,8633 C 5554,8714 5550,8795 5546,8876 5544,8916 5542,8956 5540,8996 5217,8947 4162,8728 3337,8551 L 3320,8473 5558,8633 Z"/>
       </g>
      </g>
      <g class="com.sun.star.drawing.ClosedBezierShape">
       <g id="id7">
        <rect class="BoundingBox" stroke="none" fill="none" x="3285" y="8163" width="2297" height="379"/>
        <path fill="rgb(255,191,0)" stroke="none" d="M 5580,8164 C 5574,8289 5568,8414 5562,8541 L 3319,8468 3286,8320 5580,8164 Z"/>
       </g>
      </g>
      <g class="com.sun.star.drawing.ClosedBezierShape">
       <g id="id8">
        <rect class="BoundingBox" stroke="none" fill="none" x="778" y="6564" width="1314" height="2689"/>
        <path fill="rgb(255,0,0)" stroke="none" d="M 1894,9069 L 1847,9252 C 1807,9183 1766,9121 1725,9066 1452,8709 1138,8643 955,8626 897,8608 838,8596 779,8591 L 1523,6565 C 1605,6818 1862,7613 2091,8314 L 1894,9069 Z"/>
       </g>
      </g>
      <g class="com.sun.star.drawing.ClosedBezierShape">
       <g id="id9">
        <rect class="BoundingBox" stroke="none" fill="none" x="3261" y="7750" width="2341" height="565"/>
        <path fill="rgb(255,191,0)" stroke="none" d="M 4459,7989 C 4938,7892 5415,7790 5600,7751 5595,7856 5590,7962 5585,8068 L 3285,8314 3262,8209 C 3403,8192 3720,8138 4459,7989 Z"/>
       </g>
      </g>
      <g class="com.sun.star.drawing.ClosedBezierShape">
       <g id="id10">
        <rect class="BoundingBox" stroke="none" fill="none" x="768" y="8614" width="24" height="4"/>
        <path fill="rgb(255,255,255)" stroke="none" d="M 770,8615 C 777,8616 784,8616 791,8617 783,8617 776,8617 769,8617 L 770,8615 Z"/>
       </g>
      </g>
      <g class="com.sun.star.drawing.ClosedBezierShape">
       <g id="id11">
        <rect class="BoundingBox" stroke="none" fill="none" x="1309" y="3195" width="2100" height="8182"/>
        <path fill="rgb(42,96,153)" stroke="none" d="M 2923,8628 L 2927,8631 2923,8631 2926,8950 C 2919,8995 2911,9041 2904,9089 2809,9666 2671,10506 2529,11375 2533,11301 2538,11226 2542,11150 L 2555,10939 2555,10940 C 2587,10406 2616,9924 2639,9537 2656,9387 2672,9236 2687,9085 2700,8953 2712,8822 2723,8690 L 2730,8617 C 2744,8456 2758,8295 2771,8133 2792,7884 2810,7635 2830,7386 L 2885,6637 2937,5889 2986,5140 3034,4392 C 3042,4267 3050,4142 3060,4017 3064,3955 3069,3893 3075,3831 3078,3799 3081,3768 3085,3737 3089,3707 3091,3675 3102,3646 3089,3674 3085,3706 3078,3736 3072,3767 3066,3798 3061,3829 3052,3891 3043,3953 3035,4015 3018,4139 3003,4263 2988,4387 2961,4636 2935,4885 2912,5134 2888,5384 2869,5633 2848,5882 L 2791,6631 2787,6688 2498,4293 2704,6734 C 2605,6528 2506,6322 2404,6117 2329,5966 2254,5815 2176,5666 2137,5591 2097,5516 2056,5442 2036,5406 2015,5369 1993,5333 1971,5297 1949,5260 1920,5230 1948,5261 1967,5299 1988,5336 2008,5373 2027,5410 2046,5448 2083,5523 2119,5600 2154,5676 2225,5829 2294,5983 2361,6137 2496,6446 2629,6756 2758,7067 L 2762,7065 2756,7144 2732,7296 C 2712,7271 2691,7246 2671,7220 L 2533,7051 2253,6714 C 2066,6491 1878,6268 1689,6046 1865,6278 2041,6510 2216,6744 L 2476,7094 2605,7271 C 2641,7321 2678,7372 2712,7422 L 2569,8312 1562,6410 1310,5934 2760,3629 C 2949,3472 3155,3306 3298,3196 3283,3227 3272,3246 3272,3246 3272,3246 3333,3315 3408,3381 3361,4176 3138,7760 3115,8132 L 2886,8164 2923,8628 Z"/>
       </g>
      </g>
      <g class="com.sun.star.drawing.ClosedBezierShape">
       <g id="id12">
        <rect class="BoundingBox" stroke="none" fill="none" x="7660" y="6293" width="1921" height="4369"/>
        <path fill="rgb(255,0,0)" stroke="none" d="M 8357,9196 C 8057,9775 7930,10356 7879,10660 7833,10219 7763,9687 7692,9183 7681,9106 7671,9030 7660,8955 L 8529,6728 C 8664,6560 8792,6411 8896,6294 9152,6919 9523,7850 9579,8055 9552,8060 9525,8067 9497,8075 9324,8080 8994,8194 8575,8823 8494,8945 8421,9070 8357,9196 Z"/>
       </g>
      </g>
      <g class="com.sun.star.drawing.ClosedBezierShape">
       <g id="id13">
        <rect class="BoundingBox" stroke="none" fill="none" x="711" y="8734" width="69" height="40"/>
        <path fill="rgb(255,255,255)" stroke="none" d="M 723,8743 C 741,8739 760,8736 779,8735 759,8746 736,8759 712,8773 L 723,8743 Z"/>
       </g>
      </g>
      <g class="com.sun.star.drawing.ClosedBezierShape">
       <g id="id14">
        <rect class="BoundingBox" stroke="none" fill="none" x="3422" y="8666" width="2116" height="3807"/>
        <path fill="rgb(255,0,0)" stroke="none" d="M 5536,9090 C 5535,9107 5534,9124 5533,9141 5493,9990 5450,10864 5408,11724 5328,11871 5246,12017 5159,12159 5101,12251 5043,12343 4973,12424 4964,12433 4955,12443 4946,12451 4936,12460 4926,12467 4917,12470 4913,12472 4911,12471 4911,12471 4911,12470 4909,12469 4907,12464 L 4893,12426 C 4875,12374 4855,12324 4835,12273 4679,11867 4519,11462 4360,11058 L 3590,9103 3474,8809 3899,9109 5224,10040 4005,9111 3423,8667 C 4079,8807 5174,9037 5536,9090 Z"/>
       </g>
      </g>
      <g class="com.sun.star.drawing.ClosedBezierShape">
       <g id="id15">
        <rect class="BoundingBox" stroke="none" fill="none" x="3210" y="3266" width="2623" height="4853"/>
        <path fill="rgb(255,0,0)" stroke="none" d="M 4793,6809 C 4745,6878 4694,6945 4644,7013 L 4490,7213 4332,7409 C 4278,7474 4226,7539 4170,7603 4061,7731 3949,7857 3830,7977 3918,7833 4014,7694 4112,7557 4161,7488 4212,7422 4262,7354 L 4415,7154 4573,6957 C 4627,6893 4680,6827 4735,6764 4844,6636 4956,6510 5076,6390 4987,6534 4892,6673 4793,6809 Z M 3499,3450 C 3446,4344 3239,7668 3211,8118 L 3242,8114 3242,8117 C 3250,8116 3258,8115 3266,8114 L 3270,8093 3286,7996 3318,7802 C 3340,7673 3362,7544 3385,7415 3408,7286 3434,7158 3458,7029 L 3536,6644 C 3564,6516 3591,6387 3620,6259 3650,6132 3678,6004 3711,5877 3742,5750 3776,5623 3812,5496 3831,5433 3849,5370 3870,5308 3891,5246 3911,5183 3941,5124 3930,5155 3923,5187 3915,5219 3908,5250 3901,5283 3895,5315 3882,5379 3869,5443 3857,5507 L 3783,5893 C 3759,6022 3732,6150 3707,6278 L 3629,6663 3546,7047 C 3516,7175 3489,7303 3458,7430 3428,7558 3396,7685 3363,7812 3346,7875 3330,7939 3311,8002 L 3284,8097 3279,8112 C 3326,8105 3386,8096 3458,8084 3620,7712 3789,7345 3960,6978 4045,6794 4134,6610 4220,6426 L 4484,5876 4750,5326 5018,4778 5284,4229 C 5328,4138 5372,4046 5415,3954 5437,3908 5458,3862 5478,3815 5489,3792 5499,3768 5508,3745 5517,3721 5527,3697 5531,3672 5529,3698 5522,3723 5515,3747 5508,3772 5500,3796 5492,3820 5475,3868 5457,3916 5439,3964 5403,4059 5365,4154 5326,4248 5248,4436 5168,4623 5084,4809 5002,4995 4916,5180 4831,5365 4745,5549 4657,5733 4569,5917 L 4301,6465 C 4210,6647 4120,6830 4027,7011 3843,7371 3655,7730 3459,8084 3941,8001 4919,7800 5605,7653 5656,6593 5703,5623 5743,4865 5772,4310 5794,3903 5812,3623 5820,3501 5826,3410 5831,3341 5799,3337 5765,3323 5733,3294 5724,3285 5715,3276 5707,3267 5479,3464 5160,3584 4800,3603 4796,3603 4793,3603 4790,3603 4458,3619 4137,3548 3909,3417 3807,3458 3672,3515 3579,3490 3554,3483 3527,3469 3499,3450 Z"/>
       </g>
      </g>
      <g class="com.sun.star.drawing.ClosedBezierShape">
       <g id="id16">
        <rect class="BoundingBox" stroke="none" fill="none" x="8884" y="9101" width="849" height="2221"/>
        <path fill="rgb(255,0,0)" stroke="none" d="M 9011,9102 C 9166,9417 9405,9961 9408,9968 9414,9986 9477,10165 9584,10169 9647,10171 9691,10157 9717,10146 L 9731,11051 9298,11320 9070,10528 C 8999,10160 8852,9369 8891,9300 8903,9279 8948,9205 9011,9102 Z"/>
       </g>
      </g>
      <g class="com.sun.star.drawing.PolyPolygonShape">
       <g id="id17">
        <rect class="BoundingBox" stroke="none" fill="none" x="8501" y="9467" width="721" height="2486"/>
        <path fill="rgb(255,0,0)" stroke="none" d="M 9220,11390 L 8990,11951 8697,11758 8680,11441 8677,11440 8554,10625 8501,9612 8630,9467 8772,9837 9220,11390 Z"/>
       </g>
      </g>
      <g class="com.sun.star.drawing.ClosedBezierShape">
       <g id="id18">
        <rect class="BoundingBox" stroke="none" fill="none" x="9537" y="8242" width="6" height="9"/>
        <path fill="rgb(255,255,255)" stroke="none" d="M 9540,8243 L 9541,8250 C 9540,8249 9538,8249 9537,8248 9538,8247 9539,8245 9540,8243 Z"/>
       </g>
      </g>
      <g class="com.sun.star.drawing.ClosedBezierShape">
       <g id="id19">
        <rect class="BoundingBox" stroke="none" fill="none" x="3079" y="14963" width="6" height="6"/>
        <path fill="rgb(255,255,255)" stroke="none" d="M 3080,14963 C 3081,14964 3083,14965 3084,14967 L 3080,14965 3080,14963 Z"/>
       </g>
      </g>
      <g class="com.sun.star.drawing.ClosedBezierShape">
       <g id="id20">
        <rect class="BoundingBox" stroke="none" fill="none" x="2175" y="15776" width="691" height="2327"/>
        <path fill="rgb(42,96,153)" stroke="none" d="M 2859,17967 C 2564,18027 2284,18082 2176,18101 2172,17960 2189,17422 2277,15776 L 2865,15997 2859,17967 Z"/>
       </g>
      </g>
      <g class="com.sun.star.drawing.ClosedBezierShape">
       <g id="id21">
        <rect class="BoundingBox" stroke="none" fill="none" x="2874" y="8891" width="2536" height="9082"/>
        <path fill="rgb(255,0,0)" stroke="none" d="M 3130,15261 L 3544,15478 3543,15407 3592,15923 3562,15220 C 3580,15208 3589,15189 3588,15166 3587,15147 3563,14842 3527,14374 L 3441,12308 3369,10500 3335,9596 3327,9388 3756,11157 C 3855,11561 3954,11966 4056,12369 4107,12571 4158,12773 4210,12974 4237,13075 4263,13175 4291,13276 4304,13326 4318,13376 4333,13426 L 4356,13500 C 4364,13525 4371,13551 4384,13573 4371,13550 4365,13525 4357,13500 L 4336,13425 C 4322,13375 4309,13324 4296,13274 4271,13173 4246,13072 4222,12971 4173,12769 4126,12566 4079,12364 3985,11958 3893,11552 3802,11147 L 3346,9098 3313,8949 3312,8921 3312,8892 3346,8915 3425,9099 4283,11089 C 4455,11489 4627,11888 4797,12289 4818,12339 4840,12389 4859,12439 L 4875,12477 C 4878,12485 4884,12495 4895,12501 4907,12507 4921,12505 4929,12502 4946,12495 4957,12485 4967,12475 4978,12465 4987,12455 4996,12444 5067,12358 5122,12264 5177,12170 5258,12027 5334,11882 5408,11736 5284,14268 5161,16672 5068,17971 L 3669,17881 3669,17881 C 3667,17873 3666,17863 3665,17854 3662,17835 3660,17815 3658,17796 3654,17757 3651,17717 3648,17677 3642,17597 3638,17517 3635,17437 3627,17276 3622,17115 3617,16954 3607,16633 3600,16311 3595,15989 3585,16310 3576,16632 3569,16955 3566,17116 3564,17277 3563,17438 3563,17519 3563,17599 3565,17681 3566,17721 3567,17762 3569,17803 3570,17823 3571,17844 3573,17865 3574,17868 3574,17872 3575,17875 L 3371,17862 3364,17863 C 3239,17889 3095,17919 2952,17948 L 2875,16000 3029,16058 3130,15261 Z"/>
       </g>
      </g>
      <g class="com.sun.star.drawing.ClosedBezierShape">
       <g id="id22">
        <rect class="BoundingBox" stroke="none" fill="none" x="5124" y="2905" width="3870" height="15818"/>
        <path fill="rgb(42,96,153)" stroke="none" d="M 6885,9167 L 6875,8986 C 6840,8372 6803,7759 6771,7145 L 6671,5305 6623,4384 6599,3924 C 6590,3770 6584,3617 6572,3464 6681,4688 6759,5915 6844,7141 6890,7817 6933,8493 6976,9169 7010,9718 7044,10269 7078,10819 L 7186,12659 C 7220,13273 7257,13886 7288,14500 L 7385,16341 7429,17262 7451,17722 7471,18182 7437,17723 7404,17263 7338,16344 7215,14504 C 7173,13891 7136,13278 7097,12665 L 6983,10825 6885,9167 Z M 5125,18598 C 5211,18669 5521,18730 5989,18721 L 5992,18343 5997,17915 6007,17060 6035,15348 C 6043,14778 6057,14207 6068,13637 L 6106,11926 C 6130,11001 6153,10077 6181,9153 6187,8937 6193,8721 6200,8505 L 6255,6795 6286,5939 6301,5512 6319,5084 6316,5512 6311,5940 6301,6796 6273,8507 C 6269,8723 6265,8939 6261,9155 6244,10079 6223,11003 6201,11928 L 6157,13639 C 6141,14210 6127,14780 6108,15350 L 6053,17061 6022,17916 6006,18344 5991,18721 C 6009,18721 6028,18720 6047,18719 6578,18702 7050,18604 7311,18456 7829,18162 7950,18171 8038,18179 8058,17993 8063,16995 8020,14674 7988,12916 7944,11305 7931,11182 L 7872,11022 7818,11026 C 7778,10536 7688,9834 7596,9181 7507,8545 7415,7955 7367,7648 L 7348,7643 7339,7471 C 7335,7445 7333,7430 7332,7428 L 7337,7427 7322,7138 7316,7019 7313,7018 7315,7010 7304,6806 7300,6806 7303,6776 7294,6617 7238,5575 C 7220,5227 7203,4880 7188,4532 7181,4359 7174,4185 7169,4011 7167,3924 7165,3837 7164,3750 7164,3706 7163,3663 7164,3619 7165,3598 7165,3576 7166,3554 L 7168,3522 7173,3489 7169,3522 7168,3554 C 7167,3576 7167,3598 7167,3619 7167,3663 7169,3706 7170,3750 7173,3837 7176,3924 7181,4010 7190,4184 7201,4358 7212,4531 7234,4878 7260,5225 7285,5572 L 7344,6334 7589,3696 7400,6726 7628,5955 7783,5423 C 7834,5245 7885,5068 7931,4889 7893,5070 7849,5249 7806,5429 L 7674,5968 7404,7044 7398,7042 7405,7133 7414,7249 C 7530,7025 7648,6802 7770,6580 7844,6445 7919,6310 7998,6177 8037,6111 8078,6044 8120,5980 8141,5947 8163,5915 8186,5884 8197,5869 8209,5853 8222,5839 8228,5832 8235,5825 8242,5818 8250,5812 8257,5805 8267,5803 8258,5806 8250,5813 8243,5819 8237,5826 8230,5833 8224,5841 8212,5856 8201,5872 8190,5888 8169,5920 8149,5953 8130,5986 8091,6052 8055,6120 8019,6189 7947,6325 7879,6463 7812,6602 7680,6875 7553,7151 7428,7427 7439,7493 7486,7787 7547,8193 7725,7538 8405,6699 8856,6196 L 8856,6196 8866,6185 C 8869,6181 8873,6178 8876,6174 L 8876,6174 8895,6153 C 8934,6110 8974,6066 8992,6032 L 7416,3268 6324,2906 C 6325,2940 6316,2972 6294,2999 6152,3172 5976,3130 5991,3215 5997,3245 5981,3277 5953,3302 5905,3880 5788,6317 5665,8882 5660,8969 5656,9056 5652,9143 5491,12503 5310,16234 5187,17978 L 5187,17978 5183,18026 C 5171,18194 5155,18331 5141,18453 5135,18505 5129,18553 5125,18598 Z"/>
       </g>
      </g>
      <g class="com.sun.star.drawing.ClosedBezierShape">
       <g id="id23">
        <rect class="BoundingBox" stroke="none" fill="none" x="265" y="9370" width="2205" height="2732"/>
        <path fill="rgb(255,0,0)" stroke="none" d="M 477,10908 C 482,10907 486,10907 489,10905 530,10889 581,10784 609,10722 629,10742 658,10765 681,10769 768,10784 831,10663 854,10609 880,10619 927,10629 990,10620 1096,10604 1140,10420 1144,10399 1147,10392 1385,9649 1497,9371 L 1446,9568 2205,10575 2452,11064 2452,11065 2453,11065 2469,11096 2206,11576 1615,11734 1716,10224 1519,11767 918,12100 642,11552 873,10686 850,10680 626,11520 554,11376 266,11159 328,10815 C 329,10818 330,10821 331,10824 360,10882 440,10909 477,10908 Z"/>
       </g>
      </g>
      <g class="com.sun.star.drawing.ClosedBezierShape">
       <g id="id24">
        <rect class="BoundingBox" stroke="none" fill="none" x="1853" y="8420" width="559" height="2157"/>
        <path fill="rgb(255,0,0)" stroke="none" d="M 2126,8421 C 2205,8666 2280,8894 2340,9078 2367,9159 2391,9231 2411,9293 L 2205,10575 C 2144,9969 2013,9553 1854,9267 L 1918,9070 2126,8421 Z"/>
       </g>
      </g>
      <g class="com.sun.star.drawing.ClosedBezierShape">
       <g id="id25">
        <rect class="BoundingBox" stroke="none" fill="none" x="7893" y="10051" width="686" height="1364"/>
        <path fill="rgb(255,0,0)" stroke="none" d="M 8276,10051 L 8458,10623 8577,11413 8103,11284 8020,11150 7894,10808 C 7894,10804 7893,10799 7893,10794 L 8276,10051 Z"/>
       </g>
      </g>
      <g class="com.sun.star.drawing.ClosedBezierShape">
       <g id="id26">
        <rect class="BoundingBox" stroke="none" fill="none" x="2021" y="9497" width="973" height="6144"/>
        <path fill="rgb(255,191,0)" stroke="none" d="M 2838,15639 L 2022,15063 C 2080,14711 2633,11325 2933,9497 L 2993,14873 2974,15069 C 2935,15246 2870,15540 2838,15639 Z"/>
       </g>
      </g>
      <g class="com.sun.star.drawing.ClosedBezierShape">
       <g id="id27">
        <rect class="BoundingBox" stroke="none" fill="none" x="3022" y="9071" width="468" height="6052"/>
        <path fill="rgb(255,191,0)" stroke="none" d="M 3489,15121 C 3408,15080 3237,14963 3088,14851 L 3023,9072 C 3119,10316 3450,14597 3489,15121 Z"/>
       </g>
      </g>
      <g class="com.sun.star.drawing.ClosedBezierShape">
       <g id="id28">
        <rect class="BoundingBox" stroke="none" fill="none" x="8914" y="8280" width="1507" height="2077"/>
        <path fill="rgb(255,245,206)" stroke="none" d="M 9614,9431 C 9634,9427 9655,9424 9677,9429 9659,9442 9639,9449 9619,9454 9599,9458 9578,9460 9556,9455 9574,9442 9594,9435 9614,9431 Z M 9844,9375 C 9871,9368 9898,9363 9928,9365 9903,9381 9877,9390 9850,9398 9823,9405 9795,9410 9766,9408 9790,9392 9817,9383 9844,9375 Z M 10154,9490 C 10174,9481 10194,9473 10218,9472 10202,9490 10184,9501 10164,9511 10144,9520 10124,9527 10100,9528 10116,9511 10134,9499 10154,9490 Z M 10227,9715 C 10252,9706 10277,9698 10306,9697 10284,9716 10260,9727 10236,9737 10211,9747 10185,9754 10157,9755 10179,9737 10203,9725 10227,9715 Z M 9356,9477 C 9328,9478 9300,9477 9272,9469 9299,9459 9327,9456 9354,9454 9382,9453 9410,9454 9438,9461 9411,9471 9383,9475 9356,9477 Z M 9539,9865 C 9563,9861 9587,9858 9613,9863 9590,9877 9567,9883 9543,9888 9519,9892 9495,9894 9469,9889 9491,9876 9515,9869 9539,9865 Z M 9730,10081 L 9737,10076 9750,10102 C 9769,10143 9839,10255 9894,10240 9907,10236 9938,10203 9958,10175 L 9962,10169 9873,9895 C 9855,9902 9837,9907 9819,9910 9794,9914 9768,9916 9742,9911 9765,9897 9790,9891 9815,9887 9833,9884 9851,9882 9869,9883 L 9789,9639 C 9771,9649 9751,9655 9731,9661 9706,9666 9681,9670 9654,9667 9677,9652 9701,9644 9725,9638 9745,9633 9765,9630 9786,9630 L 9742,9495 9765,9487 9979,10145 9980,10144 9998,10177 C 10046,10266 10102,10345 10124,10355 10140,10353 10200,10330 10216,10287 10231,10247 10198,10084 10174,9991 L 10153,9911 10157,9915 10155,9908 C 10132,9923 10107,9934 10082,9943 10052,9953 10023,9961 9990,9962 10016,9943 10045,9931 10074,9921 10099,9912 10125,9905 10153,9903 L 10038,9603 C 10019,9617 9998,9627 9977,9636 9952,9645 9926,9653 9897,9654 9919,9636 9943,9624 9968,9614 9990,9606 10012,9599 10036,9597 L 9958,9392 9980,9384 10197,9953 10213,9968 C 10271,10022 10339,10065 10358,10057 10392,10042 10414,9965 10390,9877 10374,9817 10252,9489 10129,9243 10111,9264 10090,9281 10069,9296 10044,9313 10018,9329 9988,9339 10007,9314 10031,9294 10055,9277 10077,9262 10100,9248 10126,9238 10126,9238 10125,9237 10125,9236 10073,9133 10002,9040 9968,8995 9947,8967 9945,8964 9944,8955 L 9944,8938 9947,8936 C 9925,8918 9901,8900 9876,8886 9844,8866 9809,8850 9772,8847 9763,8845 9754,8847 9745,8846 9736,8848 9729,8849 9718,8851 9697,8855 9677,8854 9657,8852 9618,8847 9580,8837 9543,8824 9502,8809 9462,8790 9424,8768 9438,8798 9447,8831 9448,8865 9451,8905 9443,8945 9429,8983 9415,9020 9395,9055 9369,9086 9344,9116 9313,9143 9276,9158 9308,9135 9332,9105 9354,9074 9376,9043 9394,9010 9407,8974 9420,8939 9429,8902 9430,8865 9431,8832 9427,8798 9420,8765 9392,8748 9365,8730 9341,8709 9311,8683 9285,8653 9265,8619 9256,8601 9249,8583 9245,8563 9241,8544 9241,8524 9244,8505 9244,8525 9246,8544 9251,8562 9257,8580 9265,8597 9275,8613 9296,8644 9322,8671 9352,8695 9382,8718 9414,8738 9447,8756 9481,8774 9515,8789 9551,8801 9587,8814 9623,8824 9660,8830 9678,8832 9697,8834 9714,8831 9722,8830 9734,8828 9744,8827 9754,8827 9765,8826 9775,8829 9815,8835 9851,8854 9882,8876 9907,8894 9930,8913 9951,8935 L 9958,8931 C 9977,8923 9987,8932 10050,8990 10087,9025 10133,9068 10158,9083 10202,9109 10384,9134 10418,9105 10420,9103 10421,9103 10418,9097 10401,9053 10283,8926 10179,8814 10084,8711 9986,8605 9942,8541 9892,8467 9744,8381 9502,8285 9498,8284 9494,8282 9491,8281 9460,8307 9371,8367 9198,8378 9094,8384 9008,8492 8962,8591 8909,8703 8899,8817 8937,8868 9032,8995 9435,9910 9453,9951 9467,9994 9523,10119 9586,10122 9657,10124 9699,10102 9711,10095 L 9554,9690 C 9533,9704 9511,9711 9489,9717 9466,9722 9442,9725 9418,9721 9438,9707 9461,9699 9483,9694 9506,9689 9529,9686 9554,9690 L 9459,9444 9481,9436 9730,10081 Z"/>
       </g>
      </g>
      <g class="com.sun.star.drawing.ClosedBezierShape">
       <g id="id29">
        <rect class="BoundingBox" stroke="none" fill="none" x="47" y="8736" width="1467" height="2126"/>
        <path fill="rgb(255,245,206)" stroke="none" d="M 1145,9907 C 1117,9908 1089,9907 1061,9900 1088,9889 1116,9885 1144,9883 1171,9882 1199,9883 1227,9891 1200,9902 1172,9905 1145,9907 Z M 880,9911 C 860,9908 839,9904 820,9892 841,9885 862,9885 883,9887 903,9890 924,9894 943,9906 922,9913 901,9913 880,9911 Z M 645,9879 C 618,9875 590,9868 564,9854 593,9850 621,9852 649,9856 676,9861 704,9867 730,9881 701,9886 673,9883 645,9879 Z M 344,10026 C 324,10018 304,10009 287,9993 310,9991 331,9997 352,10003 373,10011 392,10020 410,10036 386,10038 365,10033 344,10026 Z M 303,10235 C 329,10243 354,10252 377,10268 349,10270 322,10265 297,10258 271,10251 246,10242 223,10226 251,10224 277,10229 303,10235 Z M 1001,10336 C 977,10333 953,10329 930,10318 955,10311 979,10311 1003,10312 1027,10314 1052,10318 1075,10329 1050,10337 1026,10337 1001,10336 Z M 305,9599 C 329,9581 370,9534 403,9495 460,9431 469,9421 488,9428 L 496,9431 C 515,9407 535,9385 558,9365 587,9339 621,9317 660,9306 670,9303 680,9303 691,9301 700,9301 713,9302 720,9302 738,9303 756,9300 774,9295 810,9286 846,9273 880,9256 914,9240 947,9221 978,9200 1010,9179 1039,9155 1066,9129 1094,9103 1117,9073 1134,9039 1143,9023 1149,9005 1153,8986 1156,8968 1157,8949 1154,8929 1159,8948 1161,8968 1159,8987 1157,9007 1152,9026 1145,9044 1129,9080 1106,9113 1079,9142 1057,9165 1033,9186 1007,9206 1003,9240 1002,9273 1007,9306 1012,9343 1024,9379 1041,9413 1058,9447 1079,9477 1104,9506 1129,9534 1156,9562 1190,9581 1152,9570 1119,9546 1090,9519 1062,9491 1038,9459 1020,9423 1002,9388 990,9348 989,9308 987,9274 992,9241 1002,9209 967,9235 929,9258 890,9277 855,9294 818,9308 779,9317 760,9321 740,9325 719,9323 708,9322 701,9322 691,9321 682,9322 673,9321 665,9324 629,9331 595,9351 565,9374 542,9391 520,9411 499,9432 L 504,9434 505,9450 C 505,9459 503,9462 485,9491 456,9539 396,9639 354,9747 354,9748 354,9749 354,9750 380,9756 405,9768 428,9780 454,9795 480,9812 501,9835 470,9828 443,9816 417,9801 394,9788 372,9773 352,9755 255,10013 168,10352 158,10414 143,10503 173,10578 209,10589 228,10595 292,10545 344,10485 L 358,10469 514,9879 537,9885 481,10097 C 505,10097 527,10102 550,10108 576,10115 601,10124 625,10140 596,10142 570,10137 544,10130 521,10124 500,10116 479,10104 L 397,10414 C 424,10414 451,10418 477,10424 507,10431 536,10440 564,10456 532,10458 502,10453 472,10447 446,10440 420,10432 395,10420 L 393,10427 397,10423 385,10504 C 371,10599 355,10765 373,10803 394,10844 457,10861 473,10860 493,10849 541,10764 579,10671 L 594,10636 595,10637 739,9961 762,9966 732,10105 C 753,10102 774,10103 794,10106 819,10110 844,10115 868,10128 841,10134 816,10132 791,10129 770,10126 750,10122 731,10114 L 677,10365 C 695,10362 713,10362 731,10363 756,10365 781,10368 806,10379 780,10387 755,10387 730,10386 711,10385 693,10383 674,10377 L 614,10659 619,10664 C 642,10690 676,10720 689,10722 746,10732 803,10613 818,10570 L 828,10543 835,10547 1016,9878 1039,9884 970,10140 C 994,10133 1017,10134 1041,10136 1064,10139 1087,10144 1109,10156 1084,10163 1061,10162 1038,10160 1015,10157 992,10152 970,10140 L 856,10559 C 868,10565 913,10583 983,10573 1046,10564 1088,10434 1099,10387 1111,10346 1417,9394 1497,9258 1530,9203 1508,9091 1444,8985 1435,8971 1426,8956 1416,8942 1358,8879 1274,8825 1150,8808 1141,8804 1133,8801 1124,8798 1003,8794 930,8760 895,8739 889,8738 883,8737 877,8737 876,8737 876,8737 875,8738 644,8858 505,8959 463,9038 427,9106 340,9222 256,9334 165,9456 61,9594 48,9639 47,9645 48,9646 49,9647 86,9672 264,9629 305,9599 Z"/>
       </g>
      </g>
      <g class="com.sun.star.drawing.ClosedBezierShape">
       <g id="id30">
        <rect class="BoundingBox" stroke="none" fill="none" x="3153" y="17930" width="1192" height="903"/>
        <path fill="rgb(255,245,206)" stroke="none" d="M 3248,18452 C 3239,18447 3231,18440 3227,18427 3240,18424 3250,18427 3259,18431 3268,18436 3276,18443 3280,18456 3267,18459 3257,18456 3248,18452 Z M 3424,18561 C 3414,18560 3405,18558 3396,18556 3388,18554 3379,18552 3370,18549 3362,18547 3355,18543 3344,18544 3346,18539 3352,18535 3357,18534 3362,18532 3367,18531 3372,18530 3383,18529 3392,18531 3402,18533 3411,18535 3420,18539 3429,18543 3438,18547 3445,18553 3453,18559 3443,18562 3433,18561 3424,18561 Z M 3595,18628 C 3578,18625 3562,18621 3545,18611 3562,18602 3581,18602 3599,18604 3616,18608 3634,18614 3648,18627 3629,18632 3612,18630 3595,18628 Z M 3946,18626 C 3970,18636 3992,18649 4012,18664 4032,18679 4051,18697 4065,18717 4023,18691 3982,18666 3938,18648 3916,18639 3893,18633 3870,18628 3846,18623 3823,18623 3797,18623 3820,18613 3846,18608 3872,18610 3897,18611 3923,18617 3946,18626 Z M 3162,18413 C 3167,18408 3173,18403 3178,18398 3188,18389 3199,18379 3209,18369 3218,18359 3227,18347 3237,18337 3256,18316 3278,18296 3301,18279 3324,18262 3349,18246 3378,18241 3350,18248 3326,18266 3305,18284 3283,18302 3263,18323 3246,18345 3237,18355 3229,18367 3220,18379 3210,18390 3200,18400 3191,18411 3183,18419 3175,18427 3167,18436 L 3167,18436 C 3167,18439 3170,18531 3247,18549 L 3265,18554 3364,18466 3432,18406 C 3455,18386 3478,18366 3502,18348 3479,18367 3458,18389 3436,18410 L 3372,18474 3277,18571 3279,18575 C 3283,18584 3329,18669 3425,18637 L 3465,18624 C 3466,18623 3467,18622 3468,18621 3488,18600 3507,18578 3526,18556 3564,18512 3601,18467 3637,18421 3604,18469 3570,18517 3535,18564 3518,18587 3500,18610 3481,18633 L 3475,18640 3485,18665 C 3489,18677 3519,18736 3638,18694 L 3667,18684 3674,18692 3850,18461 3689,18707 C 3702,18719 3823,18835 3938,18831 4001,18810 4281,18559 4295,18499 4301,18438 4298,18132 4296,17979 L 4344,17979 3607,17940 3597,17950 C 3594,17947 3592,17943 3590,17939 L 3404,17930 3439,17962 C 3402,18002 3299,18119 3271,18170 3256,18196 3237,18219 3219,18241 3190,18276 3169,18304 3159,18335 3168,18332 3176,18333 3183,18335 3191,18338 3198,18343 3203,18355 3192,18361 3183,18360 3175,18358 3168,18355 3162,18351 3157,18343 3152,18364 3153,18387 3162,18413 Z"/>
       </g>
      </g>
      <g class="com.sun.star.drawing.PolyPolygonShape">
       <g id="id31">
        <rect class="BoundingBox" stroke="none" fill="none" x="2987" y="8219" width="299" height="541"/>
        <path fill="rgb(255,191,0)" stroke="none" d="M 3285,8759 L 3014,8576 2988,8246 3168,8220 3285,8759 Z"/>
       </g>
      </g>
      <g class="com.sun.star.drawing.ClosedBezierShape">
       <g id="id32">
        <rect class="BoundingBox" stroke="none" fill="none" x="4878" y="151" width="785" height="531"/>
        <path fill="rgb(255,245,206)" stroke="none" d="M 5518,448 C 5464,375 5401,309 5326,258 5253,207 5167,172 5077,171 5055,170 5033,172 5011,177 4989,182 4968,190 4949,201 4930,212 4912,227 4899,245 4887,264 4880,286 4879,309 4877,286 4882,262 4894,242 4906,222 4923,205 4943,191 4962,178 4984,169 5007,163 5030,156 5053,153 5077,152 5172,150 5262,187 5339,239 5416,293 5480,361 5533,437 5560,475 5583,515 5605,556 5615,576 5625,597 5635,618 5644,639 5653,660 5661,681 L 5629,621 C 5617,601 5606,581 5594,561 5571,522 5546,484 5518,448 Z"/>
       </g>
      </g>
      <g class="com.sun.star.drawing.ClosedBezierShape">
       <g id="id33">
        <rect class="BoundingBox" stroke="none" fill="none" x="5585" y="892" width="439" height="766"/>
        <path fill="rgb(255,245,206)" stroke="none" d="M 5990,1431 C 5968,1359 5931,1291 5884,1233 5837,1174 5780,1123 5722,1072 5693,1047 5663,1022 5636,994 5623,980 5611,965 5600,948 5590,932 5583,912 5585,893 5586,912 5595,930 5606,945 5617,960 5630,973 5644,986 5673,1012 5703,1035 5733,1059 5794,1106 5853,1157 5902,1218 5951,1279 5989,1350 6007,1426 6026,1502 6026,1582 6012,1657 6013,1619 6015,1581 6010,1543 6007,1505 6001,1467 5990,1431 Z"/>
       </g>
      </g>
      <g class="com.sun.star.drawing.ClosedBezierShape">
       <g id="id34">
        <rect class="BoundingBox" stroke="none" fill="none" x="5528" y="1133" width="173" height="885"/>
        <path fill="rgb(255,245,206)" stroke="none" d="M 5697,1363 C 5691,1441 5670,1517 5645,1590 5619,1663 5587,1733 5562,1805 5550,1841 5540,1878 5541,1915 5540,1934 5544,1952 5551,1970 5558,1987 5570,2002 5583,2017 5568,2004 5554,1990 5545,1972 5536,1955 5531,1935 5529,1916 5526,1876 5535,1837 5545,1799 5566,1725 5597,1654 5622,1582 5648,1510 5669,1437 5679,1362 5690,1286 5687,1209 5671,1134 5684,1170 5692,1209 5697,1247 5700,1286 5700,1325 5697,1363 Z"/>
       </g>
      </g>
      <g class="com.sun.star.drawing.ClosedBezierShape">
       <g id="id35">
        <rect class="BoundingBox" stroke="none" fill="none" x="5741" y="1209" width="240" height="920"/>
        <path fill="rgb(255,245,206)" stroke="none" d="M 5938,1949 C 5917,1989 5889,2025 5856,2055 5822,2085 5785,2109 5745,2128 5819,2082 5886,2020 5921,1941 5957,1862 5962,1773 5949,1688 5935,1602 5905,1520 5869,1440 5851,1400 5831,1361 5809,1323 5788,1284 5765,1247 5741,1210 5796,1278 5845,1353 5886,1432 5926,1511 5958,1596 5972,1684 5986,1773 5980,1868 5938,1949 Z"/>
       </g>
      </g>
      <g class="com.sun.star.drawing.ClosedBezierShape">
       <g id="id36">
        <rect class="BoundingBox" stroke="none" fill="none" x="5648" y="1495" width="134" height="460"/>
        <path fill="rgb(255,245,206)" stroke="none" d="M 5681,1741 C 5671,1784 5665,1828 5674,1869 5678,1890 5687,1909 5702,1924 5717,1939 5738,1948 5759,1954 5737,1954 5714,1947 5695,1933 5676,1918 5662,1897 5656,1874 5642,1828 5648,1780 5658,1736 5668,1691 5684,1649 5705,1608 5725,1568 5749,1529 5780,1496 5757,1534 5739,1575 5722,1616 5705,1657 5691,1699 5681,1741 Z"/>
       </g>
      </g>
      <g class="com.sun.star.drawing.ClosedBezierShape">
       <g id="id37">
        <rect class="BoundingBox" stroke="none" fill="none" x="5625" y="2038" width="274" height="556"/>
        <path fill="rgb(255,245,206)" stroke="none" d="M 5671,2446 C 5660,2424 5650,2401 5643,2377 5643,2376 5643,2375 5642,2373 5626,2317 5621,2258 5627,2201 5634,2142 5653,2082 5693,2039 5677,2063 5666,2090 5659,2118 5651,2145 5647,2174 5645,2202 5643,2248 5648,2295 5658,2340 5660,2350 5663,2360 5666,2370 5671,2388 5678,2406 5686,2423 5702,2457 5722,2489 5748,2516 5787,2557 5840,2583 5897,2593 5868,2593 5839,2587 5811,2577 5783,2566 5757,2549 5735,2529 5709,2506 5688,2477 5671,2446 Z"/>
       </g>
      </g>
      <g class="com.sun.star.drawing.ClosedBezierShape">
       <g id="id38">
        <rect class="BoundingBox" stroke="none" fill="none" x="5884" y="2116" width="280" height="684"/>
        <path fill="rgb(255,245,206)" stroke="none" d="M 5982,2752 C 5951,2771 5917,2786 5884,2799 5948,2765 6008,2725 6055,2671 6100,2618 6130,2552 6137,2482 6144,2412 6129,2341 6100,2277 6085,2245 6066,2214 6043,2187 6021,2159 5993,2136 5962,2117 5996,2131 6026,2153 6052,2179 6077,2206 6098,2236 6116,2269 6151,2334 6167,2410 6160,2484 6153,2559 6119,2630 6068,2684 6042,2710 6013,2733 5982,2752 Z"/>
       </g>
      </g>
      <g class="com.sun.star.drawing.ClosedBezierShape">
       <g id="id39">
        <rect class="BoundingBox" stroke="none" fill="none" x="5828" y="2175" width="160" height="397"/>
        <path fill="rgb(255,245,206)" stroke="none" d="M 5875,2514 C 5844,2483 5828,2439 5828,2395 5827,2352 5841,2310 5861,2273 5882,2236 5909,2204 5940,2176 5916,2210 5895,2245 5878,2281 5862,2318 5851,2356 5851,2395 5851,2434 5864,2472 5889,2502 5913,2532 5948,2554 5986,2571 5946,2563 5905,2546 5875,2514 Z"/>
       </g>
      </g>
      <g class="com.sun.star.drawing.ClosedBezierShape">
       <g id="id40">
        <rect class="BoundingBox" stroke="none" fill="none" x="6051" y="2725" width="195" height="357"/>
        <path fill="rgb(255,245,206)" stroke="none" d="M 6240,2909 C 6228,2954 6197,2990 6163,3017 6130,3046 6090,3064 6051,3081 6086,3056 6122,3033 6151,3003 6181,2975 6207,2941 6217,2903 6228,2865 6213,2825 6187,2795 6161,2764 6123,2742 6084,2726 6126,2734 6168,2750 6201,2782 6208,2791 6217,2798 6222,2809 6225,2813 6229,2818 6231,2823 L 6237,2840 C 6240,2845 6241,2851 6242,2857 6242,2862 6243,2868 6244,2874 L 6243,2892 6242,2900 6240,2909 Z"/>
       </g>
      </g>
      <g class="com.sun.star.drawing.ClosedBezierShape">
       <g id="id41">
        <rect class="BoundingBox" stroke="none" fill="none" x="5715" y="2812" width="314" height="423"/>
        <path fill="rgb(255,245,206)" stroke="none" d="M 5953,3164 C 5933,3196 5900,3218 5864,3228 5828,3238 5787,3234 5753,3212 5737,3201 5724,3183 5719,3163 5713,3143 5715,3123 5719,3105 5728,3067 5748,3035 5770,3006 5792,2977 5818,2951 5846,2928 5901,2881 5962,2843 6027,2813 5997,2833 5968,2852 5940,2874 5911,2895 5884,2918 5858,2942 5833,2966 5808,2992 5788,3020 5767,3047 5750,3078 5742,3110 5733,3142 5740,3176 5766,3195 5792,3213 5828,3219 5860,3212 5893,3205 5924,3186 5945,3158 5955,3145 5963,3129 5963,3112 5964,3094 5956,3077 5943,3065 5957,3076 5968,3092 5969,3111 5970,3130 5963,3149 5953,3164 Z"/>
       </g>
      </g>
      <g class="com.sun.star.drawing.ClosedBezierShape">
       <g id="id42">
        <rect class="BoundingBox" stroke="none" fill="none" x="5670" y="2631" width="151" height="360"/>
        <path fill="rgb(255,245,206)" stroke="none" d="M 5799,2720 C 5814,2756 5821,2796 5819,2835 5816,2875 5804,2916 5776,2946 5769,2953 5762,2961 5754,2966 5745,2971 5737,2977 5727,2980 5718,2983 5708,2987 5699,2988 5689,2989 5679,2989 5670,2990 5708,2982 5741,2963 5762,2934 5783,2906 5793,2870 5795,2834 5798,2798 5792,2761 5781,2726 5770,2691 5753,2658 5724,2632 5758,2650 5783,2684 5799,2720 Z"/>
       </g>
      </g>
      <g class="com.sun.star.drawing.ClosedBezierShape">
       <g id="id43">
        <rect class="BoundingBox" stroke="none" fill="none" x="5020" y="287" width="541" height="567"/>
        <path fill="rgb(255,245,206)" stroke="none" d="M 5401,459 C 5353,407 5294,364 5230,334 5197,319 5163,307 5127,301 5092,294 5055,290 5021,305 5053,285 5093,286 5129,289 5166,294 5202,304 5236,317 5305,345 5368,389 5419,443 5469,498 5509,564 5531,635 5555,706 5562,780 5558,853 5554,817 5552,781 5543,745 5537,710 5527,674 5514,641 5488,574 5450,512 5401,459 Z"/>
       </g>
      </g>
      <g class="com.sun.star.drawing.ClosedBezierShape">
       <g id="id44">
        <rect class="BoundingBox" stroke="none" fill="none" x="4044" y="73" width="685" height="237"/>
        <path fill="rgb(255,245,206)" stroke="none" d="M 4401,100 C 4333,109 4270,140 4211,178 4196,187 4182,198 4167,207 L 4125,240 4084,273 C 4081,277 4077,280 4073,284 4064,292 4054,300 4045,309 4058,293 4072,278 4086,263 4121,226 4159,192 4200,163 4229,141 4261,123 4293,107 4327,93 4362,81 4398,76 4471,66 4549,86 4606,133 4663,178 4704,241 4728,307 4712,276 4693,246 4670,219 4648,192 4623,167 4595,147 4539,107 4469,90 4401,100 Z"/>
       </g>
      </g>
      <g class="com.sun.star.drawing.ClosedBezierShape">
       <g id="id45">
        <rect class="BoundingBox" stroke="none" fill="none" x="3606" y="976" width="372" height="807"/>
        <path fill="rgb(255,245,206)" stroke="none" d="M 3926,1076 C 3939,1062 3951,1047 3960,1031 3970,1015 3977,996 3976,977 3979,996 3974,1016 3966,1034 3958,1052 3947,1068 3935,1084 3911,1114 3884,1142 3858,1170 3806,1226 3754,1283 3714,1347 3673,1410 3643,1480 3630,1555 3622,1592 3620,1630 3620,1668 3620,1706 3626,1744 3630,1782 3609,1708 3600,1630 3612,1552 3621,1474 3652,1399 3694,1334 3736,1268 3790,1211 3845,1158 3873,1131 3901,1104 3926,1076 Z"/>
       </g>
      </g>
      <g class="com.sun.star.drawing.ClosedBezierShape">
       <g id="id46">
        <rect class="BoundingBox" stroke="none" fill="none" x="3672" y="1307" width="275" height="917"/>
        <path fill="rgb(255,245,206)" stroke="none" d="M 3854,1308 C 3834,1348 3815,1388 3798,1428 3780,1469 3764,1509 3750,1551 3723,1634 3701,1720 3697,1806 3692,1892 3707,1980 3751,2055 3794,2130 3867,2184 3946,2223 3904,2208 3864,2187 3828,2162 3792,2135 3760,2102 3735,2064 3685,1988 3669,1894 3674,1805 3678,1715 3701,1628 3733,1545 3765,1462 3806,1383 3854,1308 Z"/>
       </g>
      </g>
      <g class="com.sun.star.drawing.ClosedBezierShape">
       <g id="id47">
        <rect class="BoundingBox" stroke="none" fill="none" x="3844" y="1596" width="168" height="456"/>
        <path fill="rgb(255,245,206)" stroke="none" d="M 4008,1960 C 4004,1984 3993,2006 3975,2023 3958,2039 3935,2048 3913,2051 3934,2043 3954,2032 3967,2015 3980,1999 3987,1978 3990,1957 3994,1915 3983,1872 3969,1831 3955,1790 3936,1750 3915,1710 3894,1672 3872,1633 3845,1597 3879,1627 3907,1663 3931,1701 3956,1739 3976,1780 3991,1823 4006,1866 4016,1913 4008,1960 Z"/>
       </g>
      </g>
      <g class="com.sun.star.drawing.ClosedBezierShape">
       <g id="id48">
        <rect class="BoundingBox" stroke="none" fill="none" x="3842" y="2128" width="240" height="574"/>
        <path fill="rgb(255,245,206)" stroke="none" d="M 3997,2620 C 3977,2643 3953,2662 3927,2675 3900,2689 3872,2697 3843,2701 3899,2685 3949,2653 3984,2609 4018,2564 4039,2511 4050,2455 4060,2400 4061,2342 4052,2286 4048,2258 4041,2230 4031,2203 4021,2176 4007,2151 3988,2129 4033,2167 4057,2225 4070,2282 4083,2340 4084,2401 4073,2460 4062,2518 4038,2576 3997,2620 Z"/>
       </g>
      </g>
      <g class="com.sun.star.drawing.ClosedBezierShape">
       <g id="id49">
        <rect class="BoundingBox" stroke="none" fill="none" x="3562" y="2233" width="317" height="672"/>
        <path fill="rgb(255,245,206)" stroke="none" d="M 3728,2234 C 3699,2256 3674,2282 3655,2312 3636,2342 3620,2374 3609,2408 3586,2474 3579,2547 3593,2615 3607,2684 3644,2746 3695,2795 3746,2844 3811,2877 3878,2904 3843,2895 3808,2884 3775,2868 3742,2852 3711,2833 3682,2809 3626,2761 3585,2693 3570,2620 3555,2547 3564,2470 3592,2401 3605,2367 3624,2335 3646,2305 3669,2277 3696,2251 3728,2234 Z"/>
       </g>
      </g>
      <g class="com.sun.star.drawing.ClosedBezierShape">
       <g id="id50">
        <rect class="BoundingBox" stroke="none" fill="none" x="3751" y="2289" width="142" height="400"/>
        <path fill="rgb(255,245,206)" stroke="none" d="M 3845,2379 C 3869,2413 3887,2453 3891,2497 3896,2540 3884,2586 3857,2620 3830,2655 3791,2676 3752,2688 3788,2668 3820,2642 3842,2609 3863,2577 3872,2538 3868,2499 3865,2461 3849,2423 3829,2389 3809,2354 3784,2322 3757,2290 3790,2315 3821,2344 3845,2379 Z"/>
       </g>
      </g>
      <g class="com.sun.star.drawing.ClosedBezierShape">
       <g id="id51">
        <rect class="BoundingBox" stroke="none" fill="none" x="3527" y="2851" width="215" height="352"/>
        <path fill="rgb(255,245,206)" stroke="none" d="M 3741,3202 C 3700,3189 3659,3175 3622,3150 3586,3127 3552,3095 3535,3051 L 3532,3042 3530,3034 3528,3017 C 3527,3011 3528,3005 3528,2999 3528,2993 3528,2987 3530,2982 L 3535,2965 C 3537,2959 3540,2954 3542,2949 3546,2938 3554,2930 3561,2921 3589,2886 3630,2865 3671,2852 3634,2873 3599,2899 3575,2932 3553,2965 3542,3006 3558,3043 3571,3080 3601,3110 3633,3135 3666,3161 3704,3181 3741,3202 Z"/>
       </g>
      </g>
      <g class="com.sun.star.drawing.ClosedBezierShape">
       <g id="id52">
        <rect class="BoundingBox" stroke="none" fill="none" x="3736" y="2932" width="346" height="400"/>
        <path fill="rgb(255,245,206)" stroke="none" d="M 3918,3044 C 3890,3022 3861,3003 3830,2985 3800,2966 3768,2950 3737,2933 3804,2956 3869,2988 3929,3028 3959,3049 3987,3072 4013,3098 4038,3125 4061,3155 4074,3191 4080,3209 4083,3229 4080,3249 4077,3269 4066,3288 4051,3301 4020,3327 3979,3335 3942,3329 3905,3323 3870,3304 3847,3275 3835,3260 3827,3243 3826,3224 3824,3205 3834,3187 3847,3175 3835,3189 3829,3206 3832,3223 3834,3240 3843,3256 3855,3268 3878,3293 3911,3309 3944,3312 3977,3316 4012,3306 4036,3285 4060,3264 4063,3229 4051,3199 4040,3167 4020,3139 3996,3114 3973,3088 3946,3065 3918,3044 Z"/>
       </g>
      </g>
      <g class="com.sun.star.drawing.ClosedBezierShape">
       <g id="id53">
        <rect class="BoundingBox" stroke="none" fill="none" x="3942" y="2720" width="169" height="354"/>
        <path fill="rgb(255,245,206)" stroke="none" d="M 4110,3071 C 4101,3072 4091,3072 4081,3073 4072,3072 4062,3070 4052,3068 4043,3066 4034,3061 4025,3057 4016,3052 4008,3045 4000,3039 3969,3012 3953,2973 3946,2934 3940,2894 3942,2854 3954,2816 3965,2779 3987,2743 4019,2721 3993,2750 3980,2785 3972,2821 3965,2857 3963,2894 3969,2930 3975,2965 3989,3000 4013,3026 4037,3052 4072,3068 4110,3071 Z"/>
       </g>
      </g>
      <g class="com.sun.star.drawing.ClosedBezierShape">
       <g id="id54">
        <rect class="BoundingBox" stroke="none" fill="none" x="3989" y="322" width="488" height="614"/>
        <path fill="rgb(255,245,206)" stroke="none" d="M 4367,329 C 4403,322 4442,317 4476,333 4441,322 4404,330 4370,340 4335,351 4303,366 4272,384 4210,421 4155,470 4113,527 4070,584 4038,650 4020,719 4010,754 4005,790 4001,826 3997,862 3998,899 3998,935 3987,863 3986,788 4002,715 4017,642 4049,573 4094,513 4139,453 4197,403 4263,368 4296,351 4331,338 4367,329 Z"/>
       </g>
      </g>
      <g class="com.sun.star.drawing.ClosedBezierShape">
       <g id="id55">
        <rect class="BoundingBox" stroke="none" fill="none" x="3448" y="1845" width="148" height="397"/>
        <path fill="rgb(255,245,206)" stroke="none" d="M 3473,2047 C 3470,2086 3481,2126 3504,2159 3527,2192 3559,2218 3595,2241 3555,2227 3517,2204 3489,2170 3461,2136 3446,2090 3449,2046 3454,1956 3517,1877 3595,1846 3560,1870 3532,1900 3510,1934 3488,1969 3474,2008 3473,2047 Z"/>
       </g>
      </g>
      <g class="com.sun.star.drawing.ClosedBezierShape">
       <g id="id56">
        <rect class="BoundingBox" stroke="none" fill="none" x="3623" y="938" width="303" height="376"/>
        <path fill="rgb(255,245,206)" stroke="none" d="M 3741,1100 C 3714,1131 3691,1164 3670,1199 3650,1235 3633,1272 3624,1313 3624,1271 3636,1229 3654,1191 3672,1152 3696,1117 3723,1085 3750,1052 3780,1023 3814,998 3848,973 3885,951 3925,939 3889,959 3857,985 3826,1012 3795,1039 3767,1069 3741,1100 Z"/>
       </g>
      </g>
      <g class="com.sun.star.drawing.ClosedBezierShape">
       <g id="id57">
        <rect class="BoundingBox" stroke="none" fill="none" x="0" y="0" width="10469" height="18928"/>
        <path fill="rgb(16,15,13)" stroke="none" d="M 3259,18431 C 3250,18427 3240,18424 3227,18427 3231,18440 3239,18447 3248,18452 3257,18456 3267,18459 3280,18456 3276,18443 3268,18436 3259,18431 Z M 3429,18543 C 3420,18539 3411,18535 3402,18533 3392,18531 3383,18529 3372,18530 3367,18531 3362,18532 3357,18534 3352,18535 3346,18539 3344,18544 3355,18543 3362,18547 3370,18549 3379,18552 3388,18554 3396,18556 3405,18558 3414,18560 3424,18561 3433,18561 3443,18562 3453,18559 3445,18553 3438,18547 3429,18543 Z M 3599,18604 C 3581,18602 3562,18602 3545,18611 3562,18621 3578,18625 3595,18628 3612,18630 3629,18632 3648,18627 3634,18614 3616,18608 3599,18604 Z M 3797,18623 C 3823,18623 3846,18623 3870,18628 3893,18633 3916,18639 3938,18648 3982,18666 4023,18691 4065,18717 4051,18697 4032,18679 4012,18664 3992,18649 3970,18636 3946,18626 3923,18617 3897,18611 3872,18610 3846,18608 3820,18613 3797,18623 Z M 410,10036 C 392,10020 373,10011 352,10003 331,9997 310,9991 287,9993 304,10009 324,10018 344,10026 365,10033 386,10038 410,10036 Z M 223,10226 C 246,10242 271,10251 297,10258 322,10265 349,10270 377,10268 354,10252 329,10243 303,10235 277,10229 251,10224 223,10226 Z M 1003,10312 C 979,10311 955,10311 930,10318 953,10329 977,10333 1001,10336 1026,10337 1050,10337 1075,10329 1051,10318 1027,10314 1003,10312 Z M 1144,9883 C 1116,9885 1088,9889 1061,9900 1089,9907 1117,9908 1145,9907 1172,9905 1200,9902 1227,9891 1199,9883 1171,9882 1144,9883 Z M 883,9887 C 862,9885 841,9885 820,9892 839,9904 860,9908 880,9911 901,9913 922,9913 943,9906 924,9894 903,9890 883,9887 Z M 649,9856 C 621,9852 593,9850 564,9854 590,9868 617,9875 645,9879 673,9883 701,9886 730,9881 704,9867 676,9861 649,9856 Z M 496,9431 C 515,9407 535,9385 558,9365 587,9339 621,9317 660,9306 670,9303 680,9303 691,9301 700,9301 713,9302 720,9302 738,9303 756,9300 774,9295 810,9286 846,9273 880,9256 914,9240 947,9221 978,9200 1010,9179 1039,9155 1066,9129 1094,9103 1117,9073 1134,9039 1143,9023 1149,9005 1153,8986 1156,8968 1157,8949 1154,8929 1159,8948 1161,8968 1159,8987 1157,9007 1152,9026 1145,9044 1129,9080 1106,9113 1079,9142 1057,9165 1033,9186 1007,9206 1003,9240 1002,9273 1007,9306 1012,9343 1024,9379 1041,9413 1058,9447 1079,9477 1104,9506 1129,9534 1156,9562 1190,9581 1152,9570 1119,9546 1090,9519 1062,9491 1038,9459 1020,9423 1002,9388 990,9348 989,9308 987,9274 992,9241 1002,9209 967,9235 929,9258 890,9277 855,9294 818,9308 779,9317 760,9321 740,9325 719,9323 708,9322 701,9322 691,9321 682,9322 673,9321 665,9324 629,9331 595,9351 565,9374 542,9391 520,9411 499,9432 L 504,9434 505,9450 C 505,9459 503,9462 485,9491 456,9539 396,9639 354,9747 354,9748 354,9749 354,9750 380,9756 405,9768 428,9780 454,9795 480,9812 501,9835 470,9828 443,9816 416,9801 394,9788 371,9773 352,9755 255,10013 168,10352 158,10414 143,10503 173,10578 209,10589 228,10595 292,10545 344,10485 L 358,10469 514,9879 537,9885 481,10097 C 505,10097 527,10102 550,10108 576,10115 601,10124 625,10140 596,10142 570,10137 543,10130 521,10124 500,10116 479,10104 L 397,10414 C 424,10414 451,10418 477,10424 507,10431 536,10440 564,10456 532,10458 502,10453 472,10447 446,10440 420,10432 395,10420 L 393,10427 397,10423 385,10504 C 371,10599 355,10765 373,10803 394,10844 457,10861 473,10860 493,10849 541,10764 579,10671 L 594,10636 594,10637 739,9961 762,9966 732,10105 C 753,10102 774,10103 794,10106 819,10110 844,10115 868,10128 841,10134 816,10132 791,10129 770,10126 750,10122 731,10114 L 677,10365 C 695,10362 713,10362 731,10363 756,10364 781,10368 806,10379 780,10387 755,10387 730,10386 711,10385 693,10383 674,10377 L 614,10659 619,10664 C 642,10690 676,10720 689,10722 746,10732 803,10613 818,10570 L 828,10543 835,10547 1016,9878 1039,9884 970,10140 C 994,10133 1017,10134 1041,10136 1064,10139 1087,10144 1109,10156 1084,10163 1061,10162 1038,10160 1015,10157 992,10152 970,10140 L 856,10559 C 868,10565 913,10583 983,10573 1046,10564 1088,10434 1099,10387 1111,10346 1417,9394 1497,9258 1530,9203 1508,9091 1444,8985 1435,8971 1426,8956 1416,8942 1358,8879 1274,8825 1150,8808 1141,8804 1133,8801 1124,8798 1003,8794 930,8760 895,8739 889,8738 883,8737 877,8737 876,8737 876,8737 875,8738 644,8858 505,8959 463,9038 427,9106 340,9222 256,9334 165,9456 61,9594 48,9639 47,9645 48,9646 49,9647 86,9672 264,9629 305,9599 329,9581 370,9534 403,9495 460,9431 469,9421 488,9428 L 496,9431 Z M 266,11159 L 554,11376 626,11520 850,10680 873,10686 642,11552 918,12100 1519,11767 1716,10224 1615,11734 2206,11576 2469,11096 2453,11065 2452,11065 2452,11064 2205,10575 2411,9293 C 2391,9231 2367,9159 2340,9078 2280,8894 2205,8666 2126,8421 L 1918,9070 1854,9267 C 2013,9553 2144,9969 2205,10575 L 1446,9568 1497,9371 C 1385,9649 1147,10392 1144,10399 1140,10420 1096,10604 990,10620 927,10629 880,10619 854,10609 831,10663 768,10784 681,10769 658,10765 629,10742 609,10722 581,10784 530,10889 489,10905 486,10907 482,10907 477,10908 440,10909 360,10882 331,10824 330,10821 329,10818 328,10815 L 266,11159 Z M 2926,8950 L 2923,8631 2927,8631 2923,8628 2886,8164 3115,8132 C 3138,7760 3361,4176 3408,3381 3333,3315 3272,3246 3272,3246 3272,3246 3283,3227 3298,3196 3155,3306 2949,3472 2760,3629 L 1310,5933 1562,6410 2569,8312 2712,7422 C 2678,7372 2641,7321 2605,7271 L 2476,7094 2216,6744 C 2041,6510 1865,6278 1689,6046 1878,6268 2066,6491 2253,6714 L 2533,7051 2671,7220 C 2691,7246 2712,7271 2732,7296 L 2756,7144 2762,7065 2758,7067 C 2629,6756 2496,6446 2361,6137 2294,5983 2225,5829 2154,5676 2119,5600 2083,5523 2046,5448 2027,5410 2008,5373 1988,5336 1967,5299 1948,5261 1920,5230 1949,5260 1971,5297 1993,5333 2015,5369 2036,5406 2056,5442 2097,5516 2137,5591 2176,5666 2254,5815 2329,5966 2404,6117 2506,6322 2605,6528 2704,6734 L 2498,4293 2787,6688 2791,6631 2848,5882 C 2869,5633 2888,5384 2912,5134 2935,4885 2961,4636 2988,4388 3003,4263 3018,4139 3035,4015 3043,3953 3052,3891 3061,3829 3066,3798 3072,3767 3078,3736 3085,3706 3089,3674 3102,3646 3091,3675 3089,3707 3085,3737 3081,3768 3078,3799 3075,3831 3069,3893 3064,3955 3060,4017 3050,4142 3042,4267 3034,4392 L 2986,5140 2937,5889 2885,6637 2830,7385 C 2810,7635 2792,7884 2771,8134 2758,8295 2744,8456 2730,8617 L 2723,8690 C 2712,8822 2700,8953 2687,9085 2672,9236 2656,9387 2639,9537 2616,9924 2587,10406 2555,10940 L 2555,10939 2542,11150 C 2538,11226 2533,11301 2529,11375 2671,10506 2809,9666 2904,9089 2911,9041 2919,8995 2926,8950 Z M 2838,15639 C 2870,15540 2935,15246 2974,15069 L 2993,14873 2933,9497 C 2633,11325 2080,14711 2022,15063 L 2838,15639 Z M 2859,17967 L 2865,15997 2277,15776 C 2189,17422 2172,17960 2176,18101 2284,18082 2564,18027 2859,17967 Z M 3371,17862 L 3575,17875 C 3574,17872 3574,17868 3573,17865 3571,17844 3570,17823 3569,17803 3567,17762 3566,17721 3565,17680 3563,17599 3563,17519 3563,17438 3564,17277 3566,17116 3569,16955 3576,16632 3585,16310 3595,15989 3600,16311 3607,16633 3617,16954 3622,17115 3627,17276 3635,17437 3638,17517 3642,17597 3648,17677 3651,17717 3654,17757 3658,17796 3660,17815 3662,17835 3665,17854 3666,17863 3667,17873 3669,17881 L 3669,17881 5068,17971 C 5161,16672 5284,14268 5408,11736 5334,11882 5258,12027 5177,12170 5122,12264 5067,12358 4996,12444 4987,12455 4978,12465 4967,12475 4957,12485 4946,12495 4929,12502 4921,12505 4907,12507 4895,12501 4884,12495 4878,12485 4875,12477 L 4859,12439 C 4840,12389 4818,12339 4797,12289 4627,11888 4455,11489 4283,11089 L 3425,9099 3346,8915 3312,8892 3312,8921 3313,8949 3346,9098 3802,11147 C 3893,11552 3985,11958 4079,12364 4126,12566 4173,12769 4222,12971 4246,13072 4271,13173 4296,13274 4309,13324 4322,13375 4336,13425 L 4357,13500 C 4365,13525 4371,13550 4384,13573 4371,13551 4364,13525 4355,13500 L 4333,13426 C 4318,13376 4304,13326 4291,13276 4263,13175 4237,13075 4210,12974 4158,12773 4107,12571 4056,12369 3954,11966 3855,11561 3756,11157 L 3327,9388 3335,9596 3369,10500 3441,12308 3527,14374 C 3563,14842 3587,15147 3588,15166 3589,15189 3580,15208 3562,15220 L 3592,15923 3543,15407 3544,15478 3130,15261 3029,16058 2875,16000 2952,17948 C 3095,17919 3239,17889 3364,17863 L 3371,17862 Z M 3219,18241 C 3190,18276 3169,18304 3159,18335 3168,18332 3176,18333 3183,18335 3191,18338 3198,18343 3203,18355 3192,18361 3183,18360 3175,18358 3168,18355 3162,18351 3157,18343 3152,18364 3153,18387 3162,18413 3167,18408 3173,18403 3178,18398 3188,18389 3199,18379 3209,18369 3218,18359 3227,18347 3237,18337 3256,18316 3278,18296 3301,18279 3324,18262 3349,18246 3378,18241 3350,18248 3326,18266 3305,18284 3283,18302 3263,18323 3246,18345 3237,18355 3229,18367 3220,18379 3210,18390 3200,18400 3191,18411 3183,18419 3175,18427 3167,18436 L 3167,18436 C 3167,18439 3170,18531 3247,18549 L 3265,18554 3364,18466 3432,18406 C 3455,18386 3478,18366 3502,18348 3479,18367 3458,18389 3436,18410 L 3372,18474 3277,18571 3279,18575 C 3283,18584 3329,18669 3425,18637 L 3465,18624 C 3466,18623 3467,18622 3468,18621 3488,18600 3507,18578 3526,18556 3564,18512 3601,18467 3637,18421 3604,18469 3570,18517 3535,18564 3518,18587 3500,18610 3481,18633 L 3475,18640 3485,18665 C 3489,18677 3519,18736 3638,18694 L 3667,18684 3674,18692 3850,18461 3689,18707 C 3702,18719 3823,18835 3938,18831 4001,18810 4281,18559 4295,18499 4301,18438 4298,18132 4296,17979 L 4344,17979 3607,17940 3597,17950 C 3594,17947 3592,17943 3590,17939 L 3404,17930 3439,17962 C 3402,18002 3299,18119 3271,18170 3256,18196 3237,18219 3219,18241 Z M 5992,18343 L 5997,17915 6007,17060 6035,15348 C 6043,14778 6057,14207 6068,13637 L 6106,11926 C 6130,11001 6153,10077 6180,9153 6187,8937 6193,8721 6200,8505 L 6255,6795 6286,5939 6301,5512 6319,5084 6316,5512 6311,5940 6301,6796 6273,8507 C 6269,8723 6265,8939 6261,9155 6244,10079 6223,11003 6201,11928 L 6157,13639 C 6141,14209 6127,14780 6108,15350 L 6053,17061 6022,17916 6006,18343 5991,18721 C 6009,18721 6028,18720 6047,18719 6578,18702 7050,18604 7310,18456 7829,18162 7950,18171 8038,18179 8058,17993 8063,16995 8020,14674 7987,12916 7944,11305 7931,11182 L 7872,11022 7818,11026 C 7779,10536 7688,9834 7596,9181 7507,8545 7415,7955 7367,7648 L 7348,7643 7339,7471 C 7335,7445 7333,7430 7332,7428 L 7337,7427 7322,7138 7316,7019 7313,7018 7315,7010 7304,6806 7300,6806 7303,6776 7294,6617 7238,5575 C 7220,5227 7203,4880 7188,4532 7181,4359 7174,4185 7169,4011 7167,3924 7165,3837 7164,3750 7164,3706 7163,3663 7164,3619 7165,3598 7165,3576 7166,3554 L 7168,3522 7173,3489 7169,3522 7168,3554 C 7167,3576 7167,3598 7167,3619 7167,3663 7169,3706 7170,3750 7173,3837 7176,3924 7181,4010 7190,4184 7201,4358 7212,4531 7234,4878 7260,5225 7285,5572 L 7344,6334 7589,3696 7400,6726 7628,5955 7783,5423 C 7834,5245 7885,5068 7931,4889 7893,5070 7849,5249 7806,5429 L 7674,5968 7404,7044 7398,7042 7405,7133 7414,7249 C 7530,7025 7648,6802 7770,6580 7844,6445 7919,6310 7998,6177 8037,6111 8078,6044 8120,5980 8141,5947 8163,5915 8186,5884 8197,5869 8209,5853 8222,5839 8228,5832 8235,5825 8242,5818 8250,5812 8257,5805 8267,5803 8258,5806 8250,5813 8243,5819 8237,5826 8230,5833 8224,5841 8212,5856 8201,5872 8190,5888 8169,5920 8149,5953 8130,5986 8091,6052 8055,6120 8019,6189 7947,6325 7879,6463 7812,6602 7680,6875 7552,7151 7428,7427 7439,7493 7486,7787 7547,8193 7725,7538 8405,6699 8856,6196 L 8856,6196 8866,6185 C 8869,6181 8873,6178 8876,6174 L 8876,6174 8895,6153 C 8934,6110 8974,6066 8992,6032 L 7416,3268 6324,2906 C 6325,2940 6316,2972 6294,2999 6152,3172 5976,3130 5991,3215 5997,3245 5981,3277 5953,3302 5905,3880 5788,6317 5665,8882 5660,8969 5656,9056 5652,9143 5491,12503 5310,16234 5187,17978 L 5187,17979 5183,18026 C 5171,18194 5155,18331 5141,18453 5135,18505 5129,18553 5125,18598 5211,18669 5521,18730 5989,18721 L 5992,18343 Z M 8577,11413 L 8458,10623 8276,10051 7893,10794 C 7893,10799 7894,10804 7894,10808 L 8020,11150 8103,11284 8577,11413 Z M 8697,11758 L 8990,11951 9220,11390 8772,9837 8630,9467 8501,9612 8554,10625 8677,11440 8680,11441 8697,11758 Z M 9717,10146 C 9691,10157 9647,10171 9584,10169 9477,10165 9414,9986 9408,9968 9405,9961 9166,9417 9011,9102 8948,9205 8903,9279 8891,9300 8852,9369 8999,10160 9070,10528 L 9298,11320 9731,11051 9717,10146 Z M 9958,10175 L 9962,10169 9873,9895 C 9855,9902 9837,9907 9819,9910 9794,9914 9768,9916 9742,9911 9765,9897 9790,9891 9815,9886 9833,9884 9851,9882 9869,9883 L 9789,9639 C 9771,9649 9751,9656 9731,9661 9706,9666 9681,9670 9654,9667 9677,9652 9701,9644 9725,9638 9745,9633 9765,9630 9786,9630 L 9742,9495 9765,9487 9979,10145 9980,10144 9998,10177 C 10046,10265 10102,10345 10124,10355 10140,10353 10200,10330 10216,10287 10231,10247 10198,10084 10174,9991 L 10153,9911 10157,9915 10155,9908 C 10132,9923 10107,9934 10082,9943 10052,9953 10023,9961 9990,9962 10016,9943 10045,9931 10074,9921 10099,9912 10125,9905 10153,9903 L 10038,9603 C 10019,9617 9998,9627 9977,9636 9952,9645 9926,9653 9897,9654 9919,9636 9943,9624 9968,9614 9990,9606 10012,9599 10036,9597 L 9958,9392 9980,9384 10197,9953 10213,9968 C 10271,10022 10339,10065 10358,10057 10392,10042 10414,9965 10390,9877 10374,9817 10252,9489 10129,9243 10111,9264 10090,9281 10069,9296 10044,9313 10018,9329 9988,9339 10007,9314 10031,9294 10055,9277 10077,9262 10100,9248 10126,9238 10126,9238 10125,9237 10125,9236 10073,9133 10002,9039 9968,8995 9947,8967 9945,8964 9944,8955 L 9944,8938 9947,8936 C 9925,8918 9901,8900 9876,8886 9844,8866 9809,8850 9772,8847 9763,8845 9754,8847 9745,8846 9736,8848 9729,8849 9718,8851 9697,8855 9677,8854 9657,8852 9618,8847 9580,8837 9543,8824 9502,8809 9462,8790 9424,8768 9438,8798 9447,8831 9448,8865 9451,8905 9443,8945 9429,8983 9415,9020 9395,9055 9369,9086 9344,9116 9313,9143 9276,9158 9308,9135 9332,9105 9354,9074 9376,9043 9394,9010 9407,8974 9420,8939 9429,8902 9430,8865 9431,8832 9427,8798 9420,8765 9392,8748 9365,8730 9341,8709 9311,8683 9285,8653 9265,8619 9256,8601 9249,8583 9245,8563 9241,8544 9241,8524 9244,8505 9244,8525 9246,8544 9251,8562 9257,8580 9265,8597 9275,8613 9296,8644 9322,8671 9352,8695 9382,8718 9414,8738 9447,8756 9481,8774 9515,8789 9551,8801 9587,8814 9623,8824 9660,8830 9678,8832 9697,8834 9714,8831 9722,8830 9734,8828 9744,8827 9754,8827 9765,8826 9775,8829 9815,8835 9851,8854 9882,8876 9907,8894 9930,8913 9951,8935 L 9958,8931 C 9977,8923 9987,8932 10050,8991 10087,9025 10133,9068 10158,9083 10202,9109 10384,9134 10418,9105 10420,9103 10421,9103 10418,9097 10401,9053 10283,8926 10179,8814 10084,8711 9986,8605 9942,8541 9892,8467 9744,8381 9502,8285 9498,8284 9494,8282 9491,8281 9460,8307 9371,8367 9198,8378 9094,8384 9008,8492 8962,8591 8909,8703 8899,8817 8937,8868 9032,8995 9435,9910 9453,9951 9467,9994 9523,10119 9586,10122 9657,10124 9699,10102 9711,10095 L 9554,9690 C 9533,9704 9511,9711 9489,9717 9466,9722 9442,9725 9418,9721 9438,9707 9461,9699 9483,9694 9506,9689 9529,9686 9554,9690 L 9459,9444 9481,9436 9730,10081 9737,10076 9750,10102 C 9769,10143 9839,10255 9894,10240 9907,10236 9938,10203 9958,10175 Z M 9540,8243 C 9539,8245 9538,8247 9537,8248 9538,8249 9540,8249 9541,8250 L 9540,8243 Z M 8529,6728 L 7660,8955 C 7671,9030 7681,9106 7692,9183 7763,9687 7833,10219 7879,10660 7930,10356 8057,9775 8357,9196 8421,9070 8494,8945 8575,8823 8994,8194 9324,8080 9497,8075 9525,8067 9552,8060 9579,8055 9523,7850 9152,6919 8896,6294 8792,6411 8664,6560 8529,6728 Z M 6237,2840 L 6231,2823 C 6229,2818 6225,2813 6222,2809 6217,2798 6208,2791 6201,2782 6168,2750 6126,2734 6084,2726 6123,2742 6161,2764 6187,2795 6213,2825 6228,2865 6217,2903 6207,2941 6181,2975 6151,3003 6122,3033 6086,3056 6051,3081 6090,3064 6130,3046 6163,3017 6197,2990 6228,2954 6240,2909 L 6242,2900 6243,2892 6244,2874 C 6243,2868 6242,2862 6241,2857 6241,2851 6240,2845 6237,2840 Z M 6052,2179 C 6026,2153 5996,2131 5962,2117 5993,2136 6021,2159 6043,2187 6066,2214 6085,2245 6100,2277 6129,2341 6144,2412 6137,2482 6130,2552 6100,2618 6055,2671 6008,2725 5948,2765 5884,2799 5917,2786 5951,2771 5982,2752 6013,2733 6042,2710 6068,2684 6119,2630 6153,2558 6160,2484 6167,2409 6152,2334 6116,2269 6099,2236 6077,2206 6052,2179 Z M 5902,1218 C 5853,1157 5794,1106 5733,1059 5703,1035 5673,1012 5644,986 5630,973 5617,960 5606,945 5595,930 5586,912 5585,893 5583,912 5590,932 5600,948 5611,965 5623,980 5636,994 5663,1022 5693,1047 5722,1072 5780,1123 5837,1174 5884,1233 5931,1291 5968,1359 5990,1431 6001,1467 6007,1505 6010,1543 6015,1581 6013,1619 6012,1657 6026,1582 6026,1502 6007,1426 5989,1350 5951,1279 5902,1218 Z M 4002,826 C 4005,790 4010,754 4020,719 4038,650 4070,584 4113,527 4155,470 4210,421 4272,384 4302,366 4335,351 4370,340 4404,330 4441,322 4476,333 4442,317 4403,322 4367,329 4331,338 4296,351 4263,368 4197,403 4139,453 4094,513 4049,573 4017,642 4002,715 3986,788 3987,863 3998,935 3998,899 3997,862 4002,826 Z M 5605,556 C 5583,515 5560,475 5533,437 5480,361 5416,293 5339,239 5262,187 5172,150 5077,152 5053,153 5030,156 5007,163 4984,169 4962,178 4943,191 4923,205 4906,222 4894,242 4882,262 4877,286 4879,309 4854,304 4813,303 4767,305 4781,272 4796,240 4816,211 4835,182 4857,155 4884,132 4935,86 5003,62 5071,65 5139,67 5206,91 5268,122 5283,130 5299,139 5314,147 L 5359,175 5403,204 C 5417,215 5432,225 5447,235 5395,186 5339,142 5276,106 5245,88 5213,73 5179,61 5144,50 5108,42 5072,41 4998,38 4922,67 4871,119 4819,170 4785,236 4767,305 4720,307 4667,313 4617,322 4617,299 4609,276 4596,258 4582,239 4563,223 4542,212 4521,201 4498,194 4475,191 4452,187 4428,186 4404,188 4310,195 4223,241 4152,301 4081,363 4024,438 3980,519 3957,559 3938,601 3921,644 3913,665 3905,687 3897,709 3891,731 3884,753 3878,775 L 3903,711 C 3913,690 3922,669 3932,648 3951,607 3971,566 3996,528 4042,450 4098,377 4167,319 4234,260 4317,216 4406,206 4428,203 4451,203 4473,205 4495,208 4517,214 4537,223 4557,232 4576,244 4591,261 4605,278 4614,299 4617,322 4546,334 4481,351 4447,372 4364,422 4147,638 4139,758 4131,878 4045,1179 4053,1225 4061,1270 4083,1485 4092,1542 4098,1577 4095,1729 4093,1836 4067,1778 4037,1723 4011,1666 3978,1598 3949,1527 3931,1453 3913,1380 3908,1303 3915,1226 3906,1264 3903,1302 3902,1341 3902,1380 3906,1419 3913,1457 3927,1534 3956,1607 3989,1677 4022,1746 4060,1811 4092,1879 4091,1919 4091,1947 4091,1947 4091,1947 4106,1972 4128,2005 4128,2018 4126,2031 4122,2045 4117,2063 4107,2079 4095,2095 4109,2081 4121,2065 4128,2047 4132,2037 4134,2027 4136,2017 4178,2076 4237,2146 4271,2120 4325,2077 4451,1654 4466,1596 4480,1538 4737,1440 4777,1457 4818,1474 4823,1560 4795,1573 4777,1582 4728,1596 4684,1622 L 4994,1606 4946,1571 C 4946,1571 4931,1475 4939,1452 4946,1429 5185,1513 5245,1584 5305,1655 5378,2061 5379,2078 5380,2096 5470,2068 5509,2066 5509,2066 5506,1901 5499,1867 5491,1833 5609,1365 5573,1219 5537,1073 5510,778 5380,574 5249,369 4969,327 4879,309 4880,286 4887,264 4899,245 4912,227 4930,212 4949,201 4968,190 4989,182 5011,177 5033,172 5055,170 5077,171 5167,172 5253,207 5326,258 5401,309 5464,375 5518,448 5546,484 5571,522 5594,561 5606,581 5617,601 5629,621 L 5661,681 C 5653,660 5644,639 5635,618 5625,597 5615,576 5605,556 Z M 3654,1191 C 3636,1229 3624,1271 3624,1313 3633,1272 3650,1235 3670,1199 3691,1164 3714,1131 3741,1100 3767,1068 3795,1039 3826,1012 3857,985 3889,959 3925,939 3885,951 3848,973 3814,998 3780,1023 3750,1052 3723,1085 3696,1117 3672,1152 3654,1191 Z M 3621,1668 C 3620,1630 3622,1592 3630,1555 3643,1480 3673,1410 3714,1347 3754,1283 3806,1226 3858,1170 3884,1142 3911,1114 3935,1084 3947,1068 3958,1052 3966,1034 3974,1016 3979,996 3976,977 3977,996 3970,1015 3961,1031 3951,1047 3939,1062 3926,1076 3901,1105 3873,1131 3845,1158 3790,1211 3736,1268 3694,1334 3652,1399 3621,1474 3612,1552 3600,1630 3609,1708 3630,1782 3626,1744 3620,1706 3621,1668 Z M 3570,2620 C 3585,2693 3626,2761 3682,2809 3711,2833 3742,2852 3775,2868 3808,2884 3843,2895 3878,2904 3811,2877 3746,2844 3695,2795 3644,2746 3607,2684 3593,2615 3579,2547 3586,2474 3609,2408 3620,2374 3636,2342 3655,2312 3674,2282 3699,2256 3728,2234 3696,2251 3669,2277 3646,2305 3624,2335 3605,2367 3592,2401 3564,2470 3555,2547 3570,2620 Z M 3489,2170 C 3517,2204 3555,2227 3595,2241 3559,2218 3527,2192 3504,2159 3481,2126 3470,2086 3473,2047 3474,2008 3488,1969 3510,1934 3532,1900 3560,1870 3595,1846 3517,1877 3454,1956 3449,2046 3446,2090 3461,2136 3489,2170 Z M 3535,2965 L 3530,2982 C 3528,2987 3528,2993 3528,2999 3528,3005 3527,3011 3528,3017 L 3530,3034 3532,3042 3535,3051 C 3552,3095 3586,3127 3622,3150 3659,3175 3700,3189 3741,3202 3704,3181 3666,3161 3633,3135 3601,3110 3571,3080 3558,3043 3542,3006 3553,2965 3575,2932 3599,2899 3634,2873 3671,2852 3630,2865 3589,2885 3561,2921 3554,2930 3546,2938 3542,2949 3540,2954 3537,2959 3535,2965 Z M 5686,2423 C 5678,2406 5671,2388 5666,2370 5663,2360 5660,2350 5658,2340 5648,2295 5643,2248 5645,2202 5647,2174 5651,2145 5659,2118 5666,2090 5677,2063 5693,2039 5653,2082 5634,2142 5627,2201 5621,2258 5626,2317 5642,2373 5643,2375 5643,2376 5643,2377 5650,2401 5660,2424 5671,2446 5688,2477 5709,2506 5735,2529 5757,2549 5783,2566 5811,2577 5839,2587 5868,2593 5897,2593 5840,2583 5787,2557 5748,2516 5722,2489 5702,2457 5686,2423 Z M 5940,2176 C 5909,2204 5882,2236 5861,2273 5841,2310 5827,2352 5827,2395 5828,2439 5844,2483 5875,2514 5905,2546 5946,2563 5986,2571 5948,2554 5913,2532 5889,2502 5864,2472 5851,2434 5851,2395 5851,2356 5862,2318 5878,2281 5895,2245 5916,2210 5940,2176 Z M 5869,1440 C 5905,1520 5935,1602 5949,1688 5962,1773 5957,1862 5921,1941 5886,2020 5819,2082 5745,2128 5785,2109 5822,2085 5856,2055 5889,2025 5917,1989 5938,1949 5980,1868 5986,1773 5972,1684 5958,1596 5926,1511 5886,1432 5845,1353 5796,1278 5741,1210 5765,1247 5788,1284 5809,1323 5831,1361 5851,1400 5869,1440 Z M 5658,1736 C 5648,1780 5642,1828 5656,1874 5662,1897 5676,1918 5695,1933 5714,1947 5737,1954 5759,1955 5738,1948 5717,1939 5702,1924 5687,1909 5678,1890 5674,1869 5665,1828 5671,1784 5681,1741 5691,1699 5705,1657 5722,1616 5739,1575 5757,1534 5780,1496 5749,1529 5725,1568 5705,1608 5684,1649 5668,1691 5658,1736 Z M 5762,2934 C 5741,2963 5708,2982 5670,2990 5679,2989 5689,2989 5699,2988 5708,2987 5718,2983 5727,2980 5737,2977 5745,2971 5754,2966 5762,2961 5769,2953 5776,2946 5804,2916 5816,2875 5819,2835 5821,2796 5814,2756 5799,2720 5783,2684 5758,2650 5724,2632 5753,2658 5770,2692 5781,2726 5792,2761 5798,2798 5795,2834 5793,2870 5783,2906 5762,2934 Z M 4019,2721 C 3987,2743 3965,2779 3954,2816 3942,2854 3940,2894 3946,2934 3953,2973 3969,3012 4000,3039 4008,3045 4016,3052 4025,3057 4034,3061 4043,3066 4052,3068 4062,3070 4072,3072 4081,3073 4091,3072 4101,3072 4110,3071 4072,3068 4037,3052 4013,3026 3989,3000 3975,2965 3969,2930 3963,2894 3965,2857 3972,2821 3980,2785 3993,2750 4019,2721 Z M 3944,3312 C 3911,3309 3878,3293 3855,3268 3843,3256 3834,3240 3832,3223 3829,3206 3835,3189 3847,3175 3834,3187 3824,3205 3826,3224 3827,3243 3835,3260 3847,3275 3870,3304 3905,3323 3942,3329 3979,3335 4020,3327 4051,3301 4066,3288 4077,3269 4080,3249 4083,3229 4080,3209 4074,3191 4061,3155 4038,3125 4013,3098 3987,3072 3959,3049 3929,3028 3869,2988 3804,2956 3737,2933 3768,2950 3800,2966 3830,2985 3861,3003 3890,3022 3918,3044 3946,3065 3973,3088 3996,3114 4020,3139 4040,3167 4051,3199 4063,3229 4060,3264 4036,3285 4012,3306 3977,3316 3944,3312 Z M 4031,2203 C 4041,2230 4048,2258 4052,2286 4061,2342 4060,2400 4050,2455 4039,2511 4018,2564 3984,2609 3949,2653 3899,2685 3843,2701 3872,2697 3900,2689 3927,2675 3953,2662 3977,2643 3997,2620 4038,2576 4062,2518 4073,2460 4084,2401 4083,2340 4070,2282 4057,2225 4033,2167 3988,2129 4007,2151 4021,2176 4031,2203 Z M 3915,1710 C 3936,1750 3955,1790 3969,1831 3983,1872 3994,1915 3990,1957 3987,1978 3980,1999 3967,2015 3954,2032 3934,2043 3913,2051 3935,2048 3958,2039 3975,2023 3993,2006 4004,1984 4008,1960 4016,1913 4006,1866 3991,1823 3976,1780 3956,1739 3931,1701 3907,1663 3879,1627 3845,1597 3872,1633 3894,1672 3915,1710 Z M 3828,2162 C 3864,2187 3904,2208 3946,2223 3867,2184 3794,2130 3751,2055 3707,1980 3692,1892 3697,1806 3701,1719 3723,1634 3750,1551 3764,1509 3780,1469 3798,1428 3815,1388 3834,1348 3854,1308 3806,1383 3765,1462 3733,1545 3701,1628 3679,1715 3674,1805 3669,1894 3685,1988 3735,2064 3760,2102 3792,2135 3828,2162 Z M 3752,2688 C 3791,2676 3830,2655 3857,2620 3884,2586 3896,2540 3891,2497 3887,2453 3869,2413 3845,2379 3821,2344 3790,2315 3757,2290 3784,2322 3809,2354 3829,2389 3849,2423 3865,2461 3868,2499 3872,2538 3863,2577 3842,2609 3820,2642 3788,2668 3752,2688 Z M 4467,2574 C 4459,2573 4453,2572 4446,2571 L 4445,2585 C 4444,2610 4444,2635 4444,2660 4443,2710 4443,2761 4443,2811 4444,2912 4446,3013 4448,3113 4434,3014 4421,2914 4408,2813 4402,2763 4396,2713 4390,2663 4388,2638 4385,2612 4383,2587 L 4380,2552 C 4349,2537 4332,2521 4332,2521 L 4134,2235 C 4134,2235 4135,2243 4136,2257 L 4141,2258 C 4141,2259 4141,2258 4141,2260 L 4141,2268 C 4141,2273 4142,2280 4143,2286 4144,2298 4146,2311 4148,2324 4151,2349 4155,2375 4160,2400 4169,2452 4179,2503 4189,2555 4210,2658 4233,2760 4258,2862 4284,2964 4310,3066 4341,3166 4357,3216 4373,3266 4392,3315 4401,3339 4411,3364 4423,3387 4435,3411 4447,3434 4466,3453 4446,3435 4432,3412 4419,3389 4406,3366 4395,3342 4384,3318 4362,3270 4343,3221 4324,3172 4288,3073 4255,2972 4224,2871 4197,2781 4171,2690 4146,2599 4145,2605 4144,2609 4142,2611 4121,2640 4209,3126 4172,3174 4139,3215 4097,3322 4023,3369 4231,3468 4507,3522 4785,3509 4788,3508 4792,3508 4795,3508 5096,3492 5366,3402 5571,3253 5598,3234 5623,3213 5648,3192 5621,3152 5599,3111 5584,3078 5563,3035 5553,3004 5553,3004 5553,3004 5653,2657 5638,2499 L 5541,2653 5438,2813 C 5404,2866 5369,2918 5337,2973 5364,2916 5394,2860 5423,2804 L 5510,2635 5596,2466 5615,2428 C 5583,2365 5552,2309 5532,2276 5507,2344 5482,2412 5456,2480 5410,2596 5363,2713 5313,2828 5263,2943 5212,3057 5153,3168 5124,3224 5093,3279 5058,3331 5023,3382 4986,3436 4933,3470 4985,3434 5018,3379 5051,3326 5083,3273 5111,3217 5137,3160 5190,3047 5236,2931 5280,2815 5321,2707 5359,2599 5396,2490 5320,2535 5049,2565 4886,2565 4748,2565 4543,2577 4467,2574 Z M 5093,1676 C 4993,1677 4737,1679 4618,1681 4576,1745 4514,1897 4484,1937 4452,1979 4476,2126 4496,2170 4516,2215 4613,2188 4710,2183 4807,2178 4786,2085 4797,2040 4802,2019 4834,1993 4880,2008 4927,2022 4937,2137 5004,2167 5071,2198 5180,2180 5219,2155 5256,2131 5132,1704 5132,1704 L 5093,1676 Z M 5419,443 C 5368,389 5305,345 5236,317 5202,304 5166,294 5129,289 5093,286 5053,285 5021,305 5055,290 5092,294 5127,301 5163,307 5197,319 5230,334 5294,364 5353,407 5401,459 5450,512 5488,574 5514,641 5527,675 5537,710 5543,745 5552,781 5554,817 5558,853 5562,780 5555,706 5531,635 5509,564 5469,498 5419,443 Z M 5622,1582 C 5597,1654 5566,1725 5545,1799 5535,1837 5526,1876 5529,1916 5531,1935 5536,1955 5545,1972 5554,1990 5568,2004 5583,2017 5570,2002 5558,1987 5551,1970 5544,1952 5540,1934 5541,1915 5540,1878 5550,1841 5562,1805 5587,1733 5619,1663 5645,1590 5670,1517 5691,1441 5697,1363 5700,1325 5700,1286 5697,1247 5692,1209 5684,1171 5671,1134 5687,1209 5690,1286 5679,1362 5669,1437 5648,1510 5622,1582 Z M 5860,3212 C 5828,3219 5792,3213 5766,3195 5740,3176 5733,3142 5742,3110 5750,3078 5767,3047 5788,3020 5808,2992 5833,2966 5858,2942 5884,2918 5911,2895 5940,2874 5968,2852 5997,2833 6027,2813 5962,2843 5901,2881 5846,2928 5818,2951 5792,2977 5770,3006 5748,3035 5728,3067 5719,3105 5715,3123 5713,3143 5719,3163 5724,3183 5737,3201 5753,3212 5787,3234 5828,3238 5864,3228 5900,3218 5933,3196 5953,3164 5963,3149 5970,3130 5969,3111 5968,3092 5957,3076 5943,3065 5956,3077 5964,3094 5963,3112 5963,3129 5955,3145 5945,3158 5924,3186 5893,3205 5860,3212 Z M 3242,8114 L 3242,8117 C 3250,8116 3258,8115 3266,8114 L 3270,8093 3286,7996 3318,7802 C 3340,7673 3362,7544 3385,7415 3408,7286 3434,7158 3458,7029 L 3536,6644 C 3564,6516 3591,6387 3620,6260 3650,6132 3678,6004 3711,5877 3742,5750 3776,5623 3812,5496 3831,5433 3849,5370 3870,5308 3891,5246 3911,5183 3941,5124 3930,5155 3923,5187 3915,5219 3908,5250 3901,5282 3895,5315 3882,5379 3869,5443 3857,5507 L 3783,5893 C 3759,6022 3732,6150 3707,6278 L 3629,6663 3546,7047 C 3516,7175 3489,7303 3458,7430 3428,7558 3396,7685 3363,7812 3346,7875 3330,7939 3311,8002 L 3284,8097 3279,8112 C 3326,8105 3386,8096 3458,8084 3620,7712 3789,7345 3960,6978 4045,6794 4134,6610 4220,6426 L 4484,5876 4750,5326 5018,4778 5284,4229 C 5328,4138 5372,4046 5415,3954 5437,3908 5458,3862 5478,3815 5489,3792 5499,3768 5508,3745 5517,3721 5527,3697 5531,3672 5529,3698 5522,3723 5515,3747 5508,3772 5500,3796 5492,3820 5475,3868 5457,3916 5439,3964 5403,4059 5365,4154 5326,4248 5248,4436 5168,4623 5084,4809 5002,4995 4916,5180 4831,5365 4745,5549 4657,5733 4569,5917 L 4301,6465 C 4210,6647 4120,6830 4027,7011 3843,7371 3655,7730 3459,8084 3941,8001 4920,7800 5605,7653 5656,6593 5703,5623 5743,4865 5772,4310 5794,3903 5812,3623 5820,3501 5826,3410 5831,3341 5799,3337 5765,3323 5733,3294 5724,3285 5715,3276 5706,3267 5479,3464 5160,3584 4800,3603 4796,3603 4793,3603 4790,3603 4458,3619 4137,3548 3909,3417 3807,3458 3672,3515 3579,3490 3554,3483 3527,3469 3499,3450 3446,4344 3239,7668 3211,8118 L 3242,8114 Z M 3014,8576 L 3285,8759 3168,8220 2988,8246 3014,8576 Z M 3023,9072 L 3088,14851 C 3237,14963 3408,15080 3489,15121 3450,14597 3119,10316 3023,9072 Z M 3080,14965 L 3084,14967 C 3083,14965 3081,14964 3080,14963 L 3080,14965 Z M 5585,8068 C 5590,7962 5595,7856 5600,7751 5415,7790 4938,7892 4459,7989 3720,8138 3403,8192 3262,8209 L 3285,8314 5585,8068 Z M 5562,8541 C 5568,8414 5574,8288 5580,8164 L 3286,8320 3319,8468 5562,8541 Z M 5546,8876 C 5550,8795 5554,8714 5558,8633 L 3320,8473 3337,8551 C 4162,8728 5217,8947 5540,8996 5542,8956 5544,8916 5546,8876 Z M 5536,9090 C 5174,9037 4079,8807 3423,8667 L 4005,9111 5224,10040 3899,9109 3474,8809 3590,9103 4360,11057 C 4519,11462 4679,11867 4835,12273 4855,12324 4875,12374 4893,12426 L 4907,12464 C 4909,12469 4911,12470 4911,12471 4911,12471 4913,12472 4917,12470 4926,12467 4936,12460 4946,12451 4955,12443 4964,12433 4973,12424 5043,12343 5101,12251 5159,12159 5246,12017 5328,11871 5408,11724 5450,10864 5493,9990 5533,9140 5534,9124 5535,9107 5536,9090 Z M 779,8591 C 838,8596 897,8608 956,8626 1138,8643 1452,8709 1725,9066 1766,9121 1807,9183 1847,9252 L 1894,9069 2091,8314 C 1862,7613 1605,6818 1523,6565 L 779,8591 Z M 770,8615 L 769,8617 C 776,8617 783,8617 791,8617 784,8616 777,8616 770,8615 Z M 712,8773 C 736,8759 759,8746 779,8735 760,8736 741,8739 723,8743 L 712,8773 Z M 2,9627 C 17,9573 110,9450 218,9305 301,9195 387,9080 421,9015 450,8962 511,8908 580,8859 L 602,8797 C 599,8800 595,8802 592,8805 621,8731 628,8682 655,8652 L 1469,6436 1201,5929 2683,3572 2687,3565 2693,3561 C 2695,3559 2872,3413 3051,3270 3216,3138 3313,3064 3372,3024 3391,2968 3404,2914 3398,2878 3381,2770 3336,2664 3384,2611 3433,2557 3578,2618 3526,2495 3474,2372 3498,2370 3422,2249 3338,2116 3332,1832 3479,1705 3627,1578 3476,1528 3572,1290 3667,1051 3625,996 3731,854 3838,711 3930,491 4009,383 4030,354 4051,319 4073,284 4077,280 4081,277 4084,273 L 4125,240 4167,207 C 4182,198 4196,187 4211,178 4270,140 4333,109 4401,100 4469,90 4539,107 4595,147 4623,167 4648,192 4670,219 4693,246 4712,276 4728,307 4704,241 4663,178 4606,133 4549,86 4471,66 4398,76 4362,81 4327,93 4293,107 4261,123 4229,141 4200,163 4159,192 4121,226 4086,263 4164,141 4263,15 4474,26 4760,42 4856,14 4856,14 5155,-47 5514,82 5708,642 5903,1202 5990,1162 6054,1307 6119,1451 6124,1726 6068,1843 6011,1960 6043,2047 6179,2225 6283,2360 6161,2594 6201,2645 6236,2691 6272,2744 6296,2797 L 7481,3189 9096,6023 9090,6042 C 9073,6098 9023,6152 8966,6215 9010,6322 9171,6717 9328,7113 9706,8066 9692,8089 9674,8119 L 9660,8141 9636,8143 C 9632,8144 9627,8144 9623,8145 L 9642,8292 C 9764,8346 9923,8427 9982,8514 10023,8575 10120,8680 10214,8782 10336,8914 10442,9028 10462,9080 10465,9086 10467,9093 10467,9100 L 10467,9105 C 10466,9119 10460,9131 10449,9141 10389,9191 10177,9150 10134,9124 10125,9118 10113,9110 10101,9100 10124,9135 10147,9174 10167,9215 10293,9464 10419,9803 10436,9865 10465,9970 10439,10074 10376,10101 10339,10117 10281,10083 10237,10050 10255,10132 10278,10257 10261,10303 10238,10364 10161,10400 10125,10402 10120,10402 10116,10402 10112,10401 10070,10389 10008,10290 9974,10231 9956,10253 9930,10279 9907,10286 9873,10295 9841,10283 9813,10262 L 9827,11104 9308,11425 9034,12093 8605,11811 8589,11515 8042,11366 8034,11353 C 8054,11868 8090,13322 8116,14730 8133,15691 8144,16513 8147,17107 8152,18208 8130,18235 8113,18257 L 8098,18274 8077,18275 C 8060,18276 8045,18275 8031,18273 7964,18268 7853,18258 7357,18539 7078,18697 6595,18787 6139,18811 5626,18838 5150,18781 5039,18646 L 5026,18631 5028,18611 C 5033,18559 5040,18503 5047,18442 5060,18333 5074,18211 5085,18067 L 4392,18023 C 4393,18138 4396,18440 4390,18508 4381,18609 4031,18921 3946,18926 L 3922,18926 C 3800,18921 3688,18833 3642,18792 3578,18810 3523,18807 3477,18785 3449,18771 3430,18753 3417,18736 3311,18754 3237,18688 3204,18635 3106,18600 3075,18502 3072,18445 3031,18321 3097,18240 3145,18181 3162,18161 3177,18142 3188,18123 3210,18084 3260,18022 3302,17973 3024,18031 2207,18198 2138,18202 L 2116,18202 2101,18187 C 2080,18166 2070,18156 2100,17434 2117,17026 2146,16439 2186,15689 2193,15567 2200,15440 2207,15310 L 1919,15106 1924,15077 C 1943,14959 2150,13692 2380,12286 2398,11986 2416,11676 2435,11355 L 2269,11657 1581,11841 878,12231 479,11439 162,11200 267,10617 C 241,10632 216,10641 195,10634 130,10614 93,10514 111,10406 121,10343 211,9993 310,9731 326,9688 345,9647 364,9610 353,9621 343,9630 334,9637 294,9667 87,9730 22,9686 8,9677 1,9663 0,9647 L 0,9641 C 0,9636 1,9632 2,9627 Z M 10100,9528 C 10124,9528 10144,9520 10164,9511 10184,9501 10202,9490 10218,9472 10194,9473 10174,9481 10154,9490 10134,9499 10116,9511 10100,9528 Z M 10157,9755 C 10185,9754 10211,9747 10236,9737 10260,9727 10284,9716 10306,9697 10277,9698 10252,9706 10227,9715 10203,9725 10179,9737 10157,9755 Z M 9469,9889 C 9495,9894 9519,9892 9543,9888 9567,9883 9590,9877 9613,9863 9587,9858 9563,9861 9539,9865 9515,9869 9491,9876 9469,9889 Z M 9438,9461 C 9410,9454 9382,9453 9354,9454 9327,9456 9299,9459 9272,9469 9300,9477 9328,9478 9356,9477 9383,9475 9411,9471 9438,9461 Z M 9677,9429 C 9655,9424 9634,9427 9614,9431 9594,9435 9574,9442 9556,9455 9578,9460 9599,9458 9619,9454 9639,9449 9659,9442 9677,9429 Z M 9766,9408 C 9795,9410 9823,9405 9850,9398 9877,9390 9903,9381 9928,9365 9898,9363 9871,9368 9844,9375 9817,9383 9790,9392 9766,9408 Z M 4158,1120 C 4190,1130 4261,1117 4295,1099 4328,1080 4348,1042 4348,1042 4348,1042 4384,1097 4419,1092 4454,1087 4486,1071 4486,1071 L 4522,1006 4579,1038 4546,961 4519,946 C 4483,949 4358,951 4293,1028 4229,1105 4126,1110 4158,1120 Z M 4775,1301 C 4692,1350 4662,1422 4662,1422 L 4740,1428 C 4740,1428 4833,1481 4840,1466 4847,1451 4878,1421 4878,1421 4878,1421 5037,1407 5050,1412 5063,1417 5003,1298 4968,1291 4849,1267 4836,1264 4775,1301 Z M 4244,1175 C 4293,1177 4340,1172 4388,1166 4411,1163 4435,1159 4459,1155 4482,1150 4505,1144 4529,1139 4505,1134 4480,1136 4456,1136 4432,1137 4408,1140 4385,1143 4337,1150 4290,1158 4244,1175 Z M 5097,1089 C 5134,1108 5174,1118 5214,1123 5234,1125 5253,1127 5274,1126 5294,1125 5314,1123 5334,1117 5294,1110 5255,1105 5217,1100 5177,1095 5138,1090 5097,1089 Z M 5117,967 L 5149,980 C 5144,1007 5166,1025 5213,1026 5284,1017 5287,962 5287,962 L 5330,1026 5381,1024 5409,1022 C 5426,1021 5375,913 5211,913 5045,913 5083,978 5061,990 5039,1002 5117,967 5117,967 Z M 5057,1782 C 5094,1729 5030,1714 4979,1712 4927,1709 4643,1729 4643,1729 L 4730,1850 4997,1836 5057,1782 Z M 4150,963 L 4154,1037 C 4205,978 4414,835 4513,876 4612,916 4637,1057 4653,1034 4668,1010 4653,1034 4703,1009 4753,984 4645,772 4645,772 4627,773 4358,735 4150,963 Z M 4941,996 L 4969,983 C 4969,983 5086,812 5143,826 5201,839 5448,895 5448,895 L 5446,849 C 5438,821 5276,767 4929,757 4894,856 4913,1008 4941,996 Z M 6599,3924 L 6623,4384 6671,5305 6771,7145 C 6803,7759 6840,8372 6875,8986 L 6885,9167 6983,10825 7097,12665 C 7136,13278 7173,13891 7215,14504 L 7338,16344 7404,17263 7437,17723 7471,18182 7451,17722 7429,17262 7385,16341 7288,14500 C 7257,13886 7220,13273 7186,12659 L 7078,10819 C 7044,10269 7010,9718 6976,9169 6933,8493 6890,7817 6844,7141 6759,5915 6681,4688 6572,3464 6584,3617 6590,3770 6599,3924 Z M 4490,7213 L 4332,7409 C 4278,7474 4226,7539 4170,7603 4061,7731 3949,7857 3830,7977 3918,7833 4014,7694 4112,7557 4161,7488 4212,7422 4262,7354 L 4415,7154 4573,6957 C 4627,6893 4680,6827 4735,6764 4844,6636 4956,6510 5076,6390 4987,6534 4892,6673 4793,6809 4745,6878 4694,6945 4644,7013 L 4490,7213 Z"/>
       </g>
      </g>
      <g class="com.sun.star.drawing.PolyPolygonShape">
       <g id="id58">
        <rect class="BoundingBox" stroke="none" fill="none" x="5364" y="3020" width="312" height="329"/>
        <path fill="rgb(255,245,206)" stroke="none" d="M 5560,3020 L 5364,3348 5675,3214 5560,3020 Z"/>
       </g>
      </g>
     </g>
    </g>
   </g>
  </g>
 </g>
</svg>